<svg width="168.000000" height="65.000000" viewBox="0 0 168 65" fill="none" xmlns="http://www.w3.org/2000/svg" xmlns:xlink="http://www.w3.org/1999/xlink">
	<desc>
			Created with Pixso.
	</desc>
	<defs>
		<clipPath id="clip14_27">
			<rect id="Spuce 1.2" width="71.000000" height="65.000000" fill="white" fill-opacity="0"/>
		</clipPath>
	</defs>
	<path id="logo text" d="M85.84 17.79L86.27 18.04L88.37 14.02Q87.57 13.62 86.51 13.17Q85.45 12.72 84.23 12.41Q83.02 12.09 81.72 12.09Q80.35 12.09 79.12 12.52Q78.78 12.63 78.46 12.78Q77.55 13.2 76.85 13.84Q76.38 14.27 76.02 14.8Q75.09 16.12 75.09 18.09Q75.09 19.39 75.57 20.31Q76.05 21.22 77.05 21.88Q78.05 22.54 79.6 23.07Q80.67 23.42 81.56 23.68Q82.44 23.95 82.99 24.23Q83.36 24.42 83.48 24.71Q83.55 24.87 83.55 25.05Q83.55 25.18 83.5 25.3Q83.42 25.48 83.23 25.61Q82.92 25.82 82.12 25.82Q81.98 25.82 81.83 25.81Q80.95 25.78 80.08 25.52Q79.07 25.22 78.24 24.85Q77.42 24.47 76.92 24.17L76.42 23.87L74.32 28.15Q75.39 28.77 76.69 29.23Q77.99 29.7 79.38 29.96Q80.77 30.22 82.05 30.22Q83.05 30.22 84.03 30.03Q84.26 29.99 84.49 29.93Q85.64 29.66 86.58 29.06Q86.62 29.03 86.67 29Q86.97 28.79 87.24 28.55Q87.82 28 88.22 27.26Q88.8 26.17 88.8 24.57Q88.8 22.9 88.14 21.88Q88.13 21.86 88.11 21.83Q87.46 20.85 86.29 20.22Q85.1 19.57 83.44 19.07Q82.42 18.75 81.68 18.52Q80.95 18.29 80.54 18.02Q80.32 17.86 80.22 17.64Q80.15 17.48 80.15 17.29Q80.15 17.02 80.27 16.84Q80.37 16.71 80.54 16.62Q80.95 16.42 81.57 16.42Q82.37 16.42 83.19 16.67Q84.02 16.92 84.72 17.23Q85.42 17.54 85.84 17.79ZM136.89 20.12Q136.84 20.54 136.84 20.97Q136.84 21.43 136.89 21.88Q137.02 23.11 137.49 24.31Q137.78 25.04 138.19 25.72Q138.68 26.54 139.33 27.26Q139.73 27.7 140.17 28.08Q141.07 28.84 142.15 29.36Q142.33 29.45 142.51 29.52Q144.01 30.15 145.77 30.15Q147.29 30.15 148.84 29.66Q150.38 29.18 151.6 28.27Q151.61 28.26 151.62 28.25Q152.62 27.49 153.16 26.49Q153.28 26.26 153.37 26.02L149.39 23.65Q149.1 24.43 148.54 24.9Q148.53 24.91 148.52 24.92Q148.19 25.19 147.82 25.38Q147.55 25.52 147.25 25.61Q146.54 25.82 145.87 25.82Q144.92 25.82 144.16 25.45Q143.73 25.24 143.38 24.94Q143.1 24.7 142.87 24.41Q142.82 24.34 142.77 24.28Q142.32 23.66 142.07 22.9Q142.01 22.7 141.96 22.51Q141.79 21.83 141.79 21.12Q141.79 20.3 142.03 19.47Q142.23 18.79 142.59 18.22Q142.67 18.09 142.76 17.97Q142.92 17.75 143.1 17.56Q143.49 17.16 144.01 16.88Q144.77 16.47 145.82 16.47Q146.49 16.47 147.21 16.66Q147.36 16.7 147.51 16.75Q148.05 16.95 148.53 17.32Q149.14 17.79 149.47 18.67L153.2 16.02Q153 15.66 152.77 15.32Q151.87 14.05 150.37 13.21Q148.47 12.14 145.92 12.14Q143.8 12.14 142.11 12.91Q140.61 13.58 139.51 14.67Q139.37 14.8 139.24 14.94Q138.39 15.87 137.83 16.96Q137.62 17.36 137.46 17.78Q137 18.93 136.89 20.12ZM89.95 12.25L89.95 30L94.82 30L94.82 24.54L97.72 24.54Q99.08 24.54 100.18 24.01Q100.49 23.86 100.78 23.66Q101.49 23.18 102.02 22.56Q102.49 22.02 102.83 21.37Q103.2 20.67 103.38 19.93Q103.57 19.18 103.57 18.39Q103.57 18.23 103.56 18.07Q103.51 17.11 103.13 16.17Q102.95 15.71 102.7 15.28Q102.36 14.7 101.9 14.19Q101.61 13.86 101.28 13.59Q100.7 13.11 99.99 12.77Q99.8 12.68 99.61 12.61Q98.67 12.25 97.59 12.25L89.95 12.25ZM104.52 12.25L104.52 30L109.4 30L109.4 24.54L111.37 24.54L114.49 30L119.85 30L116.09 23.47Q116.57 23.13 116.97 22.7Q117.24 22.42 117.47 22.11Q117.65 21.86 117.8 21.6Q118.14 21.03 118.35 20.37Q118.41 20.17 118.46 19.97Q118.64 19.2 118.64 18.39Q118.64 18.23 118.64 18.07Q118.58 17.11 118.21 16.17Q118.02 15.71 117.77 15.28Q117.43 14.7 116.97 14.19Q116.68 13.86 116.35 13.59Q115.77 13.11 115.07 12.77Q114.88 12.68 114.69 12.61Q113.75 12.25 112.67 12.25L104.52 12.25ZM124.34 29.45Q125.87 30.15 128 30.15Q130.07 30.15 131.58 29.48Q132.8 28.95 133.67 28.07Q133.88 27.85 134.07 27.62Q134.08 27.6 134.1 27.59Q135.05 26.4 135.53 24.82Q136.02 23.22 136.02 21.37L136.02 12.25L131.15 12.25L131.15 21.37Q131.15 22.22 130.97 23.02Q130.79 23.82 130.43 24.46Q130.21 24.86 129.89 25.15Q129.69 25.32 129.47 25.46Q128.87 25.82 128 25.82Q127.14 25.82 126.56 25.46Q126.41 25.37 126.27 25.26Q125.88 24.94 125.59 24.47Q125.22 23.84 125.04 23.04Q124.87 22.24 124.87 21.37L124.87 12.25L120 12.25L120 21.37Q120 23.12 120.44 24.71Q120.83 26.08 121.61 27.19Q121.73 27.36 121.86 27.52Q122.02 27.73 122.2 27.92Q123.08 28.86 124.34 29.45ZM166.74 30L166.74 25.75L158.97 25.75L158.97 22.95L165.42 22.95L165.42 19L158.97 19L158.97 16.49L166.52 16.49L166.52 12.25L154.1 12.25L154.1 30L166.74 30ZM97.39 20.3L94.82 20.3L94.82 16.49L97.27 16.49Q97.57 16.49 97.88 16.66Q98.2 16.82 98.41 17.23Q98.62 17.65 98.62 18.39Q98.62 19.09 98.43 19.52Q98.25 19.94 97.97 20.12Q97.78 20.25 97.57 20.28Q97.48 20.3 97.39 20.3ZM112.47 20.3L109.4 20.3L109.4 16.49L112.35 16.49Q112.65 16.49 112.96 16.72Q113.27 16.95 113.48 17.36Q113.69 17.77 113.69 18.39Q113.69 19 113.51 19.42Q113.32 19.84 113.05 20.07Q112.82 20.26 112.58 20.29Q112.52 20.3 112.47 20.3ZM99.36 44.12Q99.32 44.54 99.32 44.97Q99.32 45.43 99.37 45.88Q99.49 47.11 99.97 48.31Q100.26 49.04 100.66 49.72Q101.15 50.54 101.8 51.26Q102.2 51.7 102.65 52.08Q103.54 52.84 104.63 53.36Q104.81 53.45 104.99 53.52Q106.48 54.15 108.24 54.15Q109.77 54.15 111.32 53.66Q112.86 53.18 114.08 52.27Q114.09 52.26 114.1 52.25Q115.1 51.49 115.63 50.49Q115.75 50.26 115.85 50.02L111.87 47.65Q111.58 48.43 111.02 48.9Q111.01 48.91 111 48.92Q110.67 49.19 110.3 49.38Q110.02 49.52 109.72 49.61Q109.02 49.82 108.35 49.82Q107.39 49.82 106.63 49.45Q106.21 49.24 105.86 48.94Q105.58 48.7 105.34 48.41Q105.29 48.34 105.24 48.28Q104.79 47.66 104.54 46.9Q104.48 46.7 104.43 46.51Q104.27 45.83 104.27 45.12Q104.27 44.3 104.51 43.47Q104.7 42.79 105.07 42.22Q105.15 42.09 105.23 41.97Q105.39 41.75 105.58 41.56Q105.97 41.16 106.49 40.88Q107.25 40.47 108.3 40.47Q108.97 40.47 109.68 40.66Q109.84 40.7 109.98 40.75Q110.53 40.95 111.01 41.32Q111.62 41.79 111.95 42.67L115.67 40.02Q115.48 39.66 115.24 39.32Q114.35 38.05 112.85 37.21Q110.95 36.14 108.4 36.14Q106.27 36.14 104.58 36.91Q103.08 37.58 101.98 38.67Q101.85 38.8 101.72 38.94Q100.86 39.87 100.3 40.96Q100.1 41.36 99.93 41.78Q99.48 42.93 99.36 44.12ZM75.52 36.25L75.52 54L80.4 54L80.4 36.25L75.52 36.25ZM87.32 54L87.32 45.27L94.37 54L98.25 54L98.25 36.25L93.37 36.25L93.37 45.27L86.24 36.25L82.45 36.25L82.45 54L87.32 54ZM116.3 49.39L116.3 54L120.15 54L120.15 49.39L116.3 49.39Z" fill="#FFFFFF" fill-opacity="1.000000" fill-rule="evenodd"/>
	<g clip-path="url(#clip14_27)">
		<path id="Polygon 1" d="M35.45 0.04L14.24 23.8C14.21 23.84 14.24 23.9 14.29 23.9L56.71 23.9C56.75 23.9 56.78 23.84 56.75 23.8L35.54 0.04C35.51 0.02 35.48 0.02 35.45 0.04Z" fill="#F5F5F5" fill-opacity="1.000000" fill-rule="evenodd"/>
		<path id="Polygon 1" d="M35.45 10.02L9.93 38.65C9.9 38.69 9.92 38.74 9.97 38.74L61.02 38.74C61.07 38.74 61.09 38.69 61.06 38.65L35.54 10.02C35.51 10 35.48 10 35.45 10.02Z" fill="#F5F5F5" fill-opacity="1.000000" fill-rule="evenodd"/>
		<path id="Polygon 1" d="M35.45 22.17L4.84 56.53C4.8 56.57 4.83 56.63 4.88 56.63L66.11 56.63C66.16 56.63 66.19 56.57 66.15 56.53L35.54 22.17C35.51 22.14 35.48 22.14 35.45 22.17Z" fill="#F5F5F5" fill-opacity="1.000000" fill-rule="evenodd"/>
		<rect id="Rectangle 1" x="32.077148" y="54.116821" rx="1.000000" width="6.675687" height="10.777754" fill="#F5F5F5" fill-opacity="1.000000"/>
	</g>
</svg>
