<svg width="223.000000" height="65.000000" viewBox="0 0 223 65" fill="none" xmlns="http://www.w3.org/2000/svg" xmlns:xlink="http://www.w3.org/1999/xlink">
	<desc>
			Created with Pixso.
	</desc>
	<defs/>
	<path id="logo text" d="M84.01 12.97L84.01 17.88L76.78 17.88Q76.85 17.95 82.51 23.85Q83.08 24.7 83.23 25.61Q83.28 25.92 83.28 26.24Q83.28 27.09 83 27.84Q82.69 28.65 82.05 29.34Q81.32 30.11 80.43 30.43Q79.8 30.66 79.08 30.66L70 30.66L70 25.74L77.68 25.74L71.98 19.8Q71.85 19.65 71.75 19.49Q71.19 18.62 71.19 17.39Q71.19 16.48 71.51 15.7Q71.81 14.94 72.41 14.29Q73.11 13.55 73.96 13.22Q74.62 12.97 75.38 12.97L84.01 12.97ZM86.89 17.88L86.89 12.97L100.89 12.97L100.89 17.88L96.35 17.88L96.35 30.66L91.43 30.66L91.43 17.88L86.89 17.88ZM100.23 30.66L107.24 12.97L113.17 12.97L119.93 30.66L114.28 30.66L113.61 28.92L106.78 28.92L106.13 30.66L100.23 30.66ZM137.92 17.02Q138.41 18.18 138.41 19.55Q138.41 20.55 138.13 21.47Q137.86 22.36 137.32 23.18Q136.78 24 136.06 24.6Q135.37 25.18 134.52 25.56Q135.42 25.74 136.57 25.74L138.04 25.74L138.04 30.66L136.57 30.66Q131.74 30.66 129.17 28.26Q128.97 28.07 128.79 27.88Q128.62 27.7 128.46 27.5L128.46 30.66L123.54 30.66L123.54 12.97L131.89 12.97Q133.25 12.99 134.4 13.47Q135.55 13.96 136.5 14.93Q137.45 15.88 137.92 17.02ZM154.64 12.97L156.13 19.49L157.63 12.97L163.16 12.97L158.85 30.66L153.41 30.66L152.52 24.07L150.91 30.66L146.07 30.66L142.02 12.97L147.31 12.97L148.8 19.49L150.3 12.97L154.64 12.97ZM163.11 30.66L170.12 12.97L176.05 12.97L182.81 30.66L177.16 30.66L176.49 28.92L169.67 28.92L169.01 30.66L163.11 30.66ZM200.81 17.02Q201.29 18.18 201.29 19.55Q201.29 20.55 201.01 21.47Q200.74 22.36 200.21 23.18Q199.85 23.71 199.42 24.17Q198.56 25.1 197.4 25.74L211.48 25.74L205.78 19.8Q205.66 19.65 205.56 19.49Q205 18.62 205 17.39Q205 16.48 205.31 15.7Q205.62 14.94 206.22 14.29Q206.92 13.55 207.77 13.22Q208.43 12.97 209.19 12.97L217.82 12.97L217.82 17.88L210.59 17.88Q210.65 17.95 216.32 23.85Q216.89 24.7 217.04 25.61Q217.08 25.92 217.08 26.24Q217.08 27.09 216.8 27.84Q216.5 28.65 215.85 29.34Q215.13 30.11 214.24 30.43Q213.6 30.66 212.89 30.66L194.26 30.66L191.34 27.5L191.34 30.66L186.42 30.66L186.42 12.97L194.77 12.97Q196.13 12.99 197.28 13.47Q198.43 13.96 199.39 14.93Q200.33 15.88 200.81 17.02ZM128.46 18.6L128.46 21.02L131.45 21.02Q131.7 21.02 131.92 20.93Q132.13 20.84 132.31 20.66Q132.48 20.49 132.57 20.27Q132.66 20.06 132.66 19.81Q132.66 19.56 132.57 19.35Q132.48 19.13 132.31 18.96Q132.13 18.78 131.92 18.69Q131.7 18.6 131.45 18.6L128.46 18.6ZM191.34 18.6L191.34 21.02L194.33 21.02Q194.58 21.02 194.8 20.93Q195.01 20.84 195.19 20.66Q195.37 20.49 195.45 20.27Q195.54 20.06 195.54 19.81Q195.54 19.56 195.45 19.35Q195.37 19.13 195.19 18.96Q195.01 18.78 194.8 18.69Q194.58 18.6 194.33 18.6L191.34 18.6ZM110.2 19.88L108.53 24.3L111.87 24.3L110.2 19.88ZM173.08 19.88L171.41 24.3L174.76 24.3L173.08 19.88ZM74.44 50.66L71.1 50.66L71.1 38.63L74.44 38.63L74.44 50.66ZM79.21 38.63L83.66 44.88L83.66 38.63L87.01 38.63L87.01 50.66L83.66 50.66L79.22 44.4L79.22 50.66L75.88 50.66L75.88 38.63L79.21 38.63ZM88.44 50.66L88.44 38.63L97.16 38.63L97.16 41.97L91.79 41.97L91.79 42.98L96.32 42.98L96.32 46.32L91.79 46.32L91.79 50.66L88.44 50.66ZM101.77 39.09Q102.85 38.63 104.11 38.63L105.03 38.63Q106.29 38.63 107.37 39.09Q108.42 39.53 109.29 40.39Q110.16 41.27 110.6 42.33Q111.05 43.4 111.05 44.64Q111.05 45.91 110.59 46.99Q110.15 48.03 109.29 48.9Q108.42 49.77 107.37 50.21Q106.29 50.66 105.03 50.66L104.11 50.66Q102.85 50.66 101.77 50.21Q100.72 49.77 99.86 48.9Q98.99 48.03 98.55 46.99Q98.1 45.91 98.1 44.64Q98.1 43.4 98.54 42.33Q98.98 41.27 99.86 40.39Q100.72 39.53 101.77 39.09ZM122.26 41.38Q122.59 42.18 122.59 43.11Q122.59 43.79 122.4 44.41Q122.22 45.02 121.85 45.57Q121.48 46.13 120.99 46.54Q120.52 46.93 119.94 47.19Q120.56 47.32 121.34 47.32L122.34 47.32L122.34 50.66L121.34 50.66Q118.06 50.66 116.31 49.03Q116.17 48.9 116.05 48.77Q115.93 48.64 115.83 48.51L115.83 50.66L112.48 50.66L112.48 38.63L118.16 38.63Q119.08 38.64 119.86 38.97Q120.65 39.31 121.3 39.96Q121.94 40.61 122.26 41.38ZM127.79 38.63L130.6 44.07L133.01 38.63L137.18 38.63L137.18 50.66L133.84 50.66L133.84 45.38L130.6 50.61L127.37 45.38L127.37 50.66L124.03 50.66L124.03 38.63L127.79 38.63ZM138.62 50.66L143.38 38.63L147.42 38.63L152.02 50.66L148.17 50.66L147.72 49.47L143.08 49.47L142.63 50.66L138.62 50.66ZM150.63 41.97L150.63 38.63L160.15 38.63L160.15 41.97L157.06 41.97L157.06 50.66L153.72 50.66L153.72 41.97L150.63 41.97ZM164.93 50.66L161.58 50.66L161.58 38.63L164.93 38.63L164.93 50.66ZM170.04 39.09Q171.12 38.63 172.38 38.63L173.3 38.63Q174.56 38.63 175.64 39.09Q176.69 39.53 177.55 40.39Q178.43 41.27 178.87 42.33Q179.31 43.4 179.31 44.64Q179.31 45.91 178.86 46.99Q178.42 48.03 177.55 48.9Q176.69 49.77 175.64 50.21Q174.56 50.66 173.3 50.66L172.38 50.66Q171.12 50.66 170.04 50.21Q168.99 49.77 168.12 48.9Q167.26 48.03 166.82 46.99Q166.36 45.91 166.36 44.64Q166.36 43.4 166.81 42.33Q167.25 41.27 168.12 40.39Q168.99 39.53 170.04 39.09ZM184.08 38.63L188.53 44.88L188.53 38.63L191.88 38.63L191.88 50.66L188.53 50.66L184.09 44.4L184.09 50.66L180.75 50.66L180.75 38.63L184.08 38.63ZM103.06 47.11Q103.54 47.32 104.11 47.32L105.03 47.32Q105.6 47.32 106.08 47.11Q106.54 46.92 106.92 46.54Q107.31 46.15 107.51 45.68Q107.71 45.2 107.71 44.64Q107.71 44.06 107.5 43.57Q107.3 43.12 106.94 42.75Q106.58 42.39 106.14 42.2Q105.64 41.97 105.03 41.97L104.11 41.97Q103.51 41.97 103 42.2Q102.57 42.39 102.21 42.75Q101.84 43.12 101.64 43.57Q101.43 44.06 101.43 44.64Q101.43 45.2 101.63 45.68Q101.83 46.15 102.22 46.54Q102.6 46.92 103.06 47.11ZM171.33 47.11Q171.81 47.32 172.38 47.32L173.3 47.32Q173.87 47.32 174.35 47.11Q174.81 46.92 175.19 46.54Q175.58 46.15 175.78 45.68Q175.98 45.2 175.98 44.64Q175.98 44.06 175.77 43.57Q175.57 43.12 175.2 42.75Q174.84 42.39 174.41 42.2Q173.9 41.97 173.3 41.97L172.38 41.97Q171.77 41.97 171.27 42.2Q170.83 42.39 170.47 42.75Q170.1 43.12 169.91 43.57Q169.7 44.06 169.7 44.64Q169.7 45.2 169.9 45.68Q170.1 46.15 170.49 46.54Q170.87 46.92 171.33 47.11ZM115.83 42.46L115.83 44.1L117.86 44.1Q118.03 44.1 118.17 44.04Q118.32 43.98 118.44 43.86Q118.56 43.74 118.62 43.6Q118.68 43.45 118.68 43.28Q118.68 43.11 118.62 42.97Q118.56 42.82 118.44 42.7Q118.32 42.58 118.17 42.52Q118.03 42.46 117.86 42.46L115.83 42.46ZM145.4 43.33L144.26 46.34L146.54 46.34L145.4 43.33Z" fill="#FFFFFF" fill-opacity="1.000000" fill-rule="evenodd"/>
	<path id="Vector" d="M31.52 59.41L31.52 61.8C26.52 61.66 21.89 60.33 17.63 57.83C13.38 55.33 9.97 52 7.43 47.84L9.52 46.61C10.21 47.79 11.09 48.99 12.15 50.2L14.5 48.13C18.05 52.19 22.48 54.75 27.77 55.82L27.16 58.94C28.72 59.23 30.17 59.38 31.52 59.41ZM9.95 40.18L6.96 41.2C7.49 42.65 8.07 44.01 8.72 45.26L6.67 46.46C4.31 42.11 3.13 37.45 3.13 32.5C3.13 27.54 4.31 22.88 6.67 18.53L8.72 19.73C8 21.08 7.41 22.44 6.96 23.79L9.91 24.81C9.07 27.22 8.65 29.79 8.65 32.5C8.65 35.13 9.08 37.69 9.95 40.18ZM55.11 46.61L57.2 47.84C54.65 52 51.25 55.33 46.99 57.83C42.74 60.33 38.11 61.66 33.11 61.8L33.11 59.41C34.45 59.38 35.91 59.23 37.47 58.94L36.86 55.82C42.15 54.75 46.57 52.19 50.13 48.13L52.48 50.2C53.54 48.99 54.41 47.79 55.11 46.61ZM49.66 26.51L41.26 29.41C41.6 30.43 41.76 31.46 41.76 32.5C41.76 33.53 41.6 34.56 41.26 35.58L49.63 38.48C48.88 40.7 47.7 42.75 46.09 44.61L39.42 38.73C38.05 40.35 36.28 41.38 34.12 41.82L35.85 50.56C34.6 50.8 33.42 50.92 32.31 50.92C31.21 50.92 30.03 50.8 28.78 50.56L30.51 41.82C28.35 41.38 26.58 40.35 25.21 38.73L18.54 44.61C16.92 42.75 15.75 40.7 15 38.48L23.37 35.58C23.03 34.56 22.86 33.53 22.86 32.5C22.86 31.46 23.03 30.43 23.37 29.41L14.96 26.51C15.76 24.26 16.95 22.22 18.54 20.38L25.21 26.26C26.63 24.61 28.39 23.57 30.51 23.14L28.78 14.43C29.84 14.19 31.02 14.07 32.31 14.07C33.61 14.07 34.79 14.19 35.85 14.43L34.12 23.14C36.23 23.57 38 24.61 39.42 26.26L46.09 20.38C47.68 22.22 48.87 24.26 49.66 26.51ZM31.52 3.19L31.52 5.58C29.96 5.63 28.5 5.79 27.16 6.05L27.77 9.17C22.48 10.19 18.05 12.74 14.5 16.83L12.15 14.79C11.24 15.81 10.36 16.99 9.52 18.35L7.46 17.15C10.01 12.99 13.4 9.66 17.63 7.16C21.87 4.66 26.49 3.33 31.52 3.19ZM61.49 32.5C61.49 37.45 60.32 42.11 57.96 46.46L55.9 45.26C56.55 44.01 57.14 42.65 57.67 41.2L54.68 40.18C55.54 37.69 55.98 35.13 55.98 32.5C55.98 29.79 55.56 27.22 54.71 24.81L57.67 23.79C57.21 22.44 56.63 21.08 55.9 19.73L57.96 18.53C60.32 22.88 61.49 27.54 61.49 32.5ZM57.17 17.15L55.11 18.35C54.27 16.99 53.39 15.81 52.48 14.79L50.13 16.83C46.57 12.74 42.15 10.19 36.86 9.17L37.47 6.05C36.13 5.79 34.67 5.63 33.11 5.58L33.11 3.19C38.13 3.33 42.76 4.66 46.99 7.16C51.23 9.66 54.62 12.99 57.17 17.15ZM63.05 32.5C63.05 28.31 62.23 24.31 60.61 20.49C58.99 16.67 56.81 13.38 54.06 10.62C51.32 7.87 48.05 5.67 44.25 4.04C40.45 2.41 36.47 1.59 32.31 1.59C28.15 1.59 24.17 2.41 20.37 4.04C16.58 5.67 13.3 7.87 10.56 10.62C7.82 13.38 5.64 16.67 4.02 20.49C2.39 24.31 1.58 28.31 1.58 32.5C1.58 36.68 2.39 40.68 4.02 44.5C5.64 48.32 7.82 51.61 10.56 54.37C13.3 57.12 16.58 59.32 20.37 60.95C24.17 62.58 28.15 63.4 32.31 63.4C36.47 63.4 40.45 62.58 44.25 60.95C48.05 59.32 51.32 57.12 54.06 54.37C56.81 51.61 58.99 48.32 60.61 44.5C62.23 40.68 63.05 36.68 63.05 32.5ZM64.63 32.5C64.63 36.9 63.78 41.1 62.07 45.12C60.36 49.13 58.07 52.59 55.18 55.49C52.3 58.39 48.86 60.7 44.87 62.42C40.87 64.14 36.69 65 32.31 65C27.94 65 23.75 64.14 19.76 62.42C15.77 60.7 12.33 58.39 9.45 55.49C6.56 52.59 4.26 49.13 2.56 45.12C0.85 41.1 0 36.9 0 32.5C0 28.09 0.85 23.89 2.56 19.87C4.26 15.86 6.56 12.4 9.45 9.5C12.33 6.6 15.77 4.29 19.76 2.57C23.75 0.85 27.94 0 32.31 0C36.69 0 40.87 0.85 44.87 2.57C48.86 4.29 52.3 6.6 55.18 9.5C58.07 12.4 60.36 15.86 62.07 19.87C63.78 23.89 64.63 28.09 64.63 32.5Z" fill="#FFFFFF" fill-opacity="1.000000" fill-rule="nonzero"/>
</svg>
