<svg width="222.000000" height="59.000000" viewBox="0 0 222 59" fill="none" xmlns="http://www.w3.org/2000/svg" xmlns:xlink="http://www.w3.org/1999/xlink">
	<desc>
			Created with Pixso.
	</desc>
	<defs>
		<filter id="filter_14_34_dd" x="0.000000" y="0.000000" width="46.000000" height="59.000000" filterUnits="userSpaceOnUse" color-interpolation-filters="sRGB">
			<feFlood flood-opacity="0" result="BackgroundImageFix"/>
			<feColorMatrix in="SourceAlpha" type="matrix" values="0 0 0 0 0 0 0 0 0 0 0 0 0 0 0 0 0 0 127 0" result="hardAlpha"/>
			<feOffset dx="0" dy="4"/>
			<feGaussianBlur stdDeviation="1.33333"/>
			<feComposite in2="hardAlpha" operator="out" k2="-1" k3="1"/>
			<feColorMatrix type="matrix" values="0 0 0 0 0 0 0 0 0 0 0 0 0 0 0 0 0 0 0.25 0"/>
			<feBlend mode="normal" in2="BackgroundImageFix" result="effect_dropShadow_1"/>
			<feBlend mode="normal" in="SourceGraphic" in2="effect_dropShadow_1" result="shape"/>
		</filter>
		<clipPath id="clip14_34">
			<rect id="location-dot" width="38.000000" height="51.000000" transform="translate(4.000000 0.000000)" fill="white" fill-opacity="0"/>
		</clipPath>
	</defs>
	<path id="logo text" d="M175.26 33.51C176.3 33.91 177.4 34.12 178.54 34.12C180.18 34.12 181.64 33.58 182.92 32.51L182.92 34L186.95 34L186.95 24.55L179.65 24.55L179.65 28.04L182.73 28.04C182.26 28.52 181.76 28.91 181.22 29.21C180.5 29.6 179.75 29.8 178.97 29.8C178.35 29.8 177.79 29.68 177.29 29.46C176.8 29.23 176.37 28.91 176.01 28.51Q175.47 27.9 175.17 27.05C174.97 26.48 174.87 25.84 174.87 25.14C174.87 24.46 174.96 23.83 175.16 23.26C175.35 22.68 175.62 22.18 175.98 21.77Q176.36 21.33 176.83 21.03Q177.03 20.9 177.24 20.8C177.73 20.56 178.26 20.45 178.84 20.45C179.63 20.45 180.37 20.66 181.07 21.09Q181.74 21.49 182.2 22.07Q182.46 22.4 182.65 22.77L186.27 19.99C185.64 18.79 184.67 17.85 183.37 17.16C182.07 16.46 180.62 16.12 179.02 16.12C177.74 16.12 176.55 16.34 175.44 16.8C174.34 17.25 173.38 17.88 172.56 18.69C171.73 19.49 171.09 20.43 170.62 21.5C170.15 22.56 169.92 23.72 169.92 24.97C169.92 26.42 170.15 27.71 170.6 28.84C171.06 29.96 171.69 30.92 172.49 31.71Q173.14 32.35 173.89 32.82Q174.54 33.22 175.26 33.51ZM79.19 33.38C80.29 33.89 81.52 34.15 82.87 34.15C84.2 34.15 85.42 33.9 86.52 33.41C87.62 32.92 88.57 32.25 89.38 31.41C90.19 30.56 90.81 29.61 91.25 28.54C91.7 27.48 91.92 26.36 91.92 25.19Q91.92 24.61 91.84 24.03Q91.7 22.94 91.28 21.89Q91.01 21.2 90.64 20.57Q90.14 19.71 89.46 18.97C88.68 18.1 87.74 17.41 86.64 16.91C85.55 16.4 84.32 16.14 82.97 16.14C81.65 16.14 80.44 16.38 79.33 16.87C78.23 17.35 77.27 18.02 76.46 18.86Q75.77 19.58 75.25 20.4Q74.86 21.03 74.57 21.72C74.12 22.79 73.89 23.91 73.89 25.1Q73.89 25.84 74.01 26.56Q74.17 27.52 74.53 28.43C74.96 29.51 75.56 30.48 76.35 31.33Q76.68 31.68 77.03 31.99Q77.99 32.83 79.19 33.38ZM208.32 33.38C209.42 33.89 210.65 34.15 212 34.15Q213.99 34.15 215.64 33.41C216.74 32.92 217.7 32.25 218.5 31.41C219.31 30.56 219.94 29.61 220.38 28.54C220.82 27.48 221.04 26.36 221.04 25.19Q221.04 24.61 220.97 24.03Q220.82 22.94 220.4 21.89Q220.13 21.2 219.76 20.57Q219.27 19.71 218.59 18.97C217.81 18.1 216.87 17.41 215.77 16.91C214.67 16.4 213.45 16.14 212.1 16.14C210.78 16.14 209.56 16.38 208.46 16.87C207.35 17.35 206.39 18.02 205.58 18.86C204.77 19.7 204.14 20.65 203.69 21.72C203.24 22.79 203.02 23.91 203.02 25.1C203.02 26.24 203.23 27.36 203.65 28.43C204.08 29.51 204.69 30.48 205.48 31.33Q205.8 31.68 206.16 31.99Q207.12 32.83 208.32 33.38ZM67.94 24.64L67.94 34L72.82 34L72.82 16.25L67.52 16.25L63.67 24.6L59.84 16.25L54.52 16.25L54.52 34L59.4 34L59.4 24.64L62.37 31.22L64.97 31.22L67.94 24.64ZM97.87 34L97.87 25.27L104.92 34L108.8 34L108.8 16.25L103.92 16.25L103.92 25.27L96.79 16.25L93 16.25L93 34L97.87 34ZM119.57 20.49L124.67 20.49L124.67 16.25L109.57 16.25L109.57 20.49L114.7 20.49L114.7 34L119.57 34L119.57 20.49ZM138.09 34L138.09 29.75L130.32 29.75L130.32 26.95L136.77 26.95L136.77 23L130.32 23L130.32 20.49L137.87 20.49L137.87 16.25L125.45 16.25L125.45 34L138.09 34ZM144.25 34L144.25 25.27L151.3 34L155.17 34L155.17 16.25L150.3 16.25L150.3 25.27L143.17 16.25L139.37 16.25L139.37 34L144.25 34ZM169.87 34L169.87 29.75L162.1 29.75L162.1 26.95L168.54 26.95L168.54 23L162.1 23L162.1 20.49L169.65 20.49L169.65 16.25L157.22 16.25L157.22 34L169.87 34ZM188.35 16.25L188.35 34L193.22 34L193.22 28.54L195.19 28.54L198.32 34L203.67 34L199.92 27.47C200.45 27.09 200.91 26.63 201.29 26.11Q201.47 25.86 201.63 25.6Q201.96 25.03 202.17 24.37C202.37 23.74 202.47 23.08 202.47 22.39Q202.47 22.23 202.46 22.07Q202.41 21.11 202.03 20.17C201.74 19.44 201.33 18.78 200.8 18.19C200.26 17.59 199.63 17.12 198.89 16.77C198.16 16.42 197.36 16.25 196.49 16.25L188.35 16.25ZM79.09 26.88C78.93 26.32 78.84 25.74 78.84 25.14C78.84 24.56 78.92 23.99 79.08 23.44C79.24 22.87 79.49 22.37 79.82 21.93Q79.99 21.71 80.19 21.52Q80.58 21.14 81.08 20.87Q81.85 20.47 82.9 20.47Q83.92 20.47 84.7 20.85C85.21 21.1 85.64 21.44 85.97 21.89Q86.06 22.01 86.14 22.14Q86.51 22.7 86.72 23.37C86.88 23.92 86.97 24.49 86.97 25.1C86.97 25.68 86.89 26.25 86.73 26.81C86.57 27.37 86.33 27.88 86 28.34C85.68 28.79 85.26 29.15 84.75 29.42C84.23 29.69 83.62 29.82 82.92 29.82Q81.87 29.82 81.11 29.44C80.6 29.18 80.18 28.83 79.85 28.39C79.51 27.94 79.26 27.44 79.09 26.88ZM208.22 26.88C208.05 26.32 207.97 25.74 207.97 25.14C207.97 24.56 208.05 23.99 208.21 23.44C208.37 22.87 208.61 22.37 208.95 21.93Q209.11 21.71 209.31 21.52Q209.7 21.14 210.21 20.87Q210.97 20.47 212.02 20.47C212.71 20.47 213.31 20.6 213.82 20.85C214.34 21.1 214.76 21.44 215.09 21.89Q215.19 22.01 215.27 22.14Q215.64 22.7 215.84 23.37C216.01 23.92 216.09 24.49 216.09 25.1C216.09 25.68 216.01 26.25 215.86 26.81C215.7 27.37 215.45 27.88 215.13 28.34C214.81 28.79 214.39 29.15 213.87 29.42C213.36 29.69 212.75 29.82 212.05 29.82Q211 29.82 210.23 29.44C209.73 29.18 209.3 28.83 208.97 28.39C208.64 27.94 208.39 27.44 208.22 26.88ZM196.29 24.3L193.22 24.3L193.22 20.49L196.17 20.49C196.37 20.49 196.57 20.57 196.78 20.72C196.99 20.87 197.16 21.08 197.31 21.36C197.45 21.63 197.52 21.98 197.52 22.39C197.52 22.8 197.46 23.14 197.33 23.42C197.21 23.7 197.06 23.92 196.87 24.07C196.69 24.22 196.5 24.3 196.29 24.3Z" fill="#FFFFFF" fill-opacity="1.000000" fill-rule="evenodd"/>
	<g filter="url(#filter_14_34_dd)">
		<g clip-path="url(#clip14_34)">
			<path id="path" d="M25.34 49.72C30.42 43.33 42 27.83 42 19.12C42 8.56 33.48 0 23 0C12.51 0 4 8.56 4 19.12C4 27.83 15.57 43.33 20.65 49.72C21.87 51.24 24.12 51.24 25.34 49.72ZM23 12.75C23.41 12.75 23.82 12.79 24.23 12.87C24.64 12.95 25.03 13.07 25.42 13.23C25.8 13.39 26.17 13.59 26.51 13.82C26.86 14.05 27.18 14.32 27.47 14.61C27.77 14.91 28.03 15.23 28.26 15.58C28.49 15.93 28.69 16.29 28.85 16.68C29.01 17.07 29.13 17.47 29.21 17.88C29.29 18.29 29.33 18.7 29.33 19.12C29.33 19.54 29.29 19.95 29.21 20.36C29.13 20.77 29.01 21.17 28.85 21.56C28.69 21.95 28.49 22.31 28.26 22.66C28.03 23.01 27.77 23.33 27.47 23.63C27.18 23.92 26.86 24.19 26.51 24.42C26.17 24.65 25.8 24.85 25.42 25.01C25.03 25.17 24.64 25.29 24.23 25.37C23.82 25.45 23.41 25.5 23 25.5C22.58 25.5 22.17 25.45 21.76 25.37C21.35 25.29 20.96 25.17 20.57 25.01C20.19 24.85 19.82 24.65 19.48 24.42C19.13 24.19 18.81 23.92 18.52 23.63C18.22 23.33 17.96 23.01 17.73 22.66C17.5 22.31 17.3 21.95 17.14 21.56C16.98 21.17 16.86 20.77 16.78 20.36C16.7 19.95 16.66 19.54 16.66 19.12C16.66 18.7 16.7 18.29 16.78 17.88C16.86 17.47 16.98 17.07 17.14 16.68C17.3 16.29 17.5 15.93 17.73 15.58C17.96 15.23 18.22 14.91 18.52 14.61C18.81 14.32 19.13 14.05 19.48 13.82C19.82 13.59 20.19 13.39 20.57 13.23C20.96 13.07 21.35 12.95 21.76 12.87C22.17 12.79 22.58 12.75 23 12.75Z" fill="#FFFFFF" fill-opacity="1.000000" fill-rule="nonzero"/>
		</g>
	</g>
</svg>
