<svg width="168.000000" height="65.000000" viewBox="0 0 168 65" fill="none" xmlns="http://www.w3.org/2000/svg" xmlns:xlink="http://www.w3.org/1999/xlink">
	<desc>
			Created with Pixso.
	</desc>
	<defs>
		<clipPath id="clip14_27">
			<rect id="Spuce 1.2" width="71.000000" height="65.000000" fill="white" fill-opacity="0"/>
		</clipPath>
	</defs>
	<path id="logo text" d="M94.34 29.38Q96 30.15 98.02 30.15Q100.02 30.15 101.67 29.41Q102.89 28.86 103.86 28.04Q104.21 27.74 104.53 27.41Q105.25 26.66 105.78 25.79Q106.14 25.19 106.4 24.54Q106.69 23.86 106.85 23.15Q107.07 22.2 107.07 21.19Q107.07 20.61 106.99 20.03Q106.85 18.94 106.43 17.89Q106.16 17.2 105.79 16.57Q105.29 15.71 104.61 14.97Q104.3 14.61 103.94 14.3Q102.99 13.46 101.8 12.91Q100.15 12.14 98.12 12.14Q96.14 12.14 94.49 12.87L94.48 12.87Q93.29 13.39 92.33 14.19Q91.95 14.5 91.61 14.86Q90.92 15.58 90.4 16.4Q90.01 17.03 89.72 17.72Q89.48 18.28 89.33 18.85Q89.04 19.94 89.04 21.1Q89.04 21.84 89.16 22.56Q89.32 23.52 89.68 24.43Q89.96 25.13 90.34 25.77Q90.83 26.6 91.5 27.33Q91.83 27.68 92.18 27.99Q93.14 28.83 94.34 29.38ZM82.3 19.5L79.12 12.25L73.84 12.25L79.87 24.07L79.87 30L84.72 30L84.72 24.12L90.85 12.25L85.54 12.25L82.3 19.5ZM121.57 20.64L121.57 30L126.44 30L126.44 12.25L121.15 12.25L117.3 20.6L113.47 12.25L108.15 12.25L108.15 30L113.02 30L113.02 20.64L116 27.22L118.6 27.22L121.57 20.64ZM128.5 12.25L128.5 30L133.37 30L133.37 12.25L128.5 12.25ZM142.32 24.37L138.85 12.25L133.69 12.25L139.89 30L144.75 30L150.87 12.25L145.75 12.25L142.32 24.37ZM163.87 30L163.87 25.75L156.1 25.75L156.1 22.95L162.54 22.95L162.54 19L156.1 19L156.1 16.49L163.65 16.49L163.65 12.25L151.22 12.25L151.22 30L163.87 30ZM94.14 22.46Q93.99 21.82 93.99 21.14Q93.99 20.66 94.07 20.19Q94.13 19.81 94.23 19.44Q94.45 18.68 94.87 18.07Q94.92 18 94.97 17.93Q95.14 17.71 95.34 17.52Q95.73 17.14 96.23 16.87Q97 16.47 98.05 16.47Q99.07 16.47 99.85 16.85Q100.36 17.09 100.75 17.47Q100.95 17.66 101.12 17.89Q101.21 18.01 101.29 18.14Q101.66 18.7 101.87 19.37Q102.12 20.19 102.12 21.1Q102.12 21.5 102.07 21.9Q102.01 22.36 101.88 22.81Q101.7 23.44 101.38 23.98Q101.28 24.16 101.15 24.34Q101.01 24.55 100.83 24.73Q100.43 25.14 99.9 25.42Q99.12 25.82 98.07 25.82Q97.02 25.82 96.26 25.44Q95.74 25.17 95.35 24.78Q95.16 24.6 95 24.39Q94.93 24.3 94.87 24.22Q94.46 23.62 94.24 22.88Q94.18 22.67 94.14 22.46ZM99.36 44.12Q99.32 44.54 99.32 44.97Q99.32 45.43 99.37 45.88Q99.49 47.11 99.97 48.31Q100.26 49.04 100.66 49.72Q101.15 50.54 101.8 51.26Q102.2 51.7 102.65 52.08Q103.54 52.84 104.63 53.36Q104.81 53.45 104.99 53.52Q106.48 54.15 108.24 54.15Q109.77 54.15 111.32 53.66Q112.86 53.18 114.08 52.27Q114.09 52.26 114.1 52.25Q115.1 51.49 115.63 50.49Q115.75 50.26 115.85 50.02L111.87 47.65Q111.58 48.43 111.02 48.9Q111.01 48.91 111 48.92Q110.67 49.19 110.3 49.38Q110.02 49.52 109.72 49.61Q109.02 49.82 108.35 49.82Q107.39 49.82 106.63 49.45Q106.21 49.24 105.86 48.94Q105.58 48.7 105.34 48.41Q105.29 48.34 105.24 48.28Q104.79 47.66 104.54 46.9Q104.48 46.7 104.43 46.51Q104.27 45.83 104.27 45.12Q104.27 44.3 104.51 43.47Q104.7 42.79 105.07 42.22Q105.15 42.09 105.23 41.97Q105.39 41.75 105.58 41.56Q105.97 41.16 106.49 40.88Q107.25 40.47 108.3 40.47Q108.97 40.47 109.68 40.66Q109.84 40.7 109.98 40.75Q110.53 40.95 111.01 41.32Q111.62 41.79 111.95 42.67L115.67 40.02Q115.48 39.66 115.24 39.32Q114.35 38.05 112.85 37.21Q110.95 36.14 108.4 36.14Q106.27 36.14 104.58 36.91Q103.08 37.58 101.98 38.67Q101.85 38.8 101.72 38.94Q100.86 39.87 100.3 40.96Q100.1 41.36 99.93 41.78Q99.48 42.93 99.36 44.12ZM75.52 36.25L75.52 54L80.4 54L80.4 36.25L75.52 36.25ZM87.32 54L87.32 45.27L94.37 54L98.25 54L98.25 36.25L93.37 36.25L93.37 45.27L86.24 36.25L82.45 36.25L82.45 54L87.32 54ZM116.3 49.39L116.3 54L120.15 54L120.15 49.39L116.3 49.39Z" fill="#FFFFFF" fill-opacity="1.000000" fill-rule="evenodd"/>
	<g clip-path="url(#clip14_27)">
		<path id="Polygon 1" d="M35.45 0.04L14.24 23.8C14.21 23.84 14.24 23.9 14.29 23.9L56.71 23.9C56.75 23.9 56.78 23.84 56.75 23.8L35.54 0.04C35.51 0.02 35.48 0.02 35.45 0.04Z" fill="#F5F5F5" fill-opacity="1.000000" fill-rule="evenodd"/>
		<path id="Polygon 1" d="M35.45 10.02L9.93 38.65C9.9 38.69 9.92 38.74 9.97 38.74L61.02 38.74C61.07 38.74 61.09 38.69 61.06 38.65L35.54 10.02C35.51 10 35.48 10 35.45 10.02Z" fill="#F5F5F5" fill-opacity="1.000000" fill-rule="evenodd"/>
		<path id="Polygon 1" d="M35.45 22.17L4.84 56.53C4.8 56.57 4.83 56.63 4.88 56.63L66.11 56.63C66.16 56.63 66.19 56.57 66.15 56.53L35.54 22.17C35.51 22.14 35.48 22.14 35.45 22.17Z" fill="#F5F5F5" fill-opacity="1.000000" fill-rule="evenodd"/>
		<rect id="Rectangle 1" x="32.077148" y="54.116821" rx="1.000000" width="6.675687" height="10.777754" fill="#F5F5F5" fill-opacity="1.000000"/>
	</g>
</svg>
