<svg width="65.000000" height="65.000000" viewBox="0 0 65 65" fill="none" xmlns="http://www.w3.org/2000/svg" xmlns:xlink="http://www.w3.org/1999/xlink">
	<desc>
			Created with Pixso.
	</desc>
	<defs>
		<clipPath id="clip14_21">
			<rect id="brand-lego" width="65.000000" height="65.000000" fill="white" fill-opacity="0"/>
		</clipPath>
	</defs>
	<g clip-path="url(#clip14_21)">
		<path id="path" d="M0.44 0.43L0.44 64.56L64.57 64.56L64.57 0.43L0.44 0.43Z" fill="#FFFFFF" fill-opacity="1.000000" fill-rule="nonzero"/>
		<path id="path" d="M0.44 64.56L0.44 0.43L64.57 0.43L64.57 64.56L0.44 64.56ZM59 33.24C59.56 31.57 60.2 29.09 60.3 27.09C60.38 25.58 60.18 23.47 58.76 21.97C57.62 20.77 55.89 20.17 53.6 20.17C50.72 20.17 48.4 21.18 46.69 23.2L46.25 23.73L45.95 23.1C45.7 22.59 45.53 22.38 45.27 22.08C44.1 20.77 42.15 20.1 39.47 20.1C37.01 20.1 34.8 20.84 33.22 22.17L32.82 22.51L32.55 22.07C31.81 20.86 29.95 20.08 27.83 20.08C24.78 20.08 21.7 20.49 19.84 23.49L19.07 24.72L19.01 23.27C18.96 22.14 18.86 21.67 18.33 21.12C17.76 20.51 16.79 20.21 15.37 20.21C13.29 20.21 11.72 21.12 10.58 22.99C8.83 25.79 4.59 35 4.69 39.37C4.75 42.21 6.64 43.95 9.76 44.02C12.32 44.09 14.36 43.43 15.66 42.12L15.99 41.78L16.31 42.13C17.47 43.39 19.25 44.09 21.3 44.09C23.91 44.09 26.14 43.28 27.43 41.86L27.78 41.48L28.11 41.88C29.31 43.36 31.16 44.13 33.47 44.12C36.49 44.11 39.3 42.72 41.19 40.32L41.69 39.69L41.96 40.45C43.13 43.62 46.29 44.09 48.08 44.09C54.13 44.09 56.74 39.94 59 33.24Z" fill="#FFED00" fill-opacity="1.000000" fill-rule="evenodd"/>
		<path id="path" d="M0.44 64.56L0.44 0.43L64.57 0.43L64.57 64.56L0.44 64.56ZM59.4 37.93C60.24 36.21 61.82 31.88 62.11 29.55C62.46 26.7 62.8 23.97 60.88 21.29C59.51 19.39 57.18 18.11 53.64 18.11C50.96 18.11 48.57 18.84 46.65 20.43C45.01 18.81 42.66 18.07 39.5 18.07C37.03 18.07 34.95 18.64 33.14 19.72C31.83 18.68 30.29 18.03 27.83 18.03C25.61 18.03 22.48 18.14 20.12 20.15C19.58 19.03 18.47 18.16 15.41 18.16C12.6 18.16 10.3 19.49 8.8 21.97C6.78 25.18 2.52 34.45 2.62 39.52C2.71 43.33 5.57 45.96 9.71 46.06C12.2 46.12 14.32 45.59 15.94 44.51C17.4 45.57 19.27 46.14 21.35 46.14C23.84 46.14 26.08 45.48 27.74 44.31C29.25 45.51 31.23 46.15 33.46 46.15C36.37 46.15 39.06 45.15 41.24 43.24C42.73 45.14 45.27 46.12 48.36 46.12C54.15 46.12 57.15 42.57 59.4 37.93Z" fill="#E3000B" fill-opacity="1.000000" fill-rule="evenodd"/>
		<path id="path" d="M0 65L0 0L65 0L64.99 64.99L0 65ZM64.1 64.1L64.1 0.89L0.89 0.89L0.89 64.1L64.1 64.1Z" fill="#000000" fill-opacity="1.000000" fill-rule="evenodd"/>
		<path id="path" d="M60.52 19.6C60.52 19.4 60.56 19.2 60.64 19.01C60.72 18.82 60.83 18.65 60.98 18.5C61.12 18.36 61.29 18.24 61.48 18.16C61.67 18.09 61.87 18.05 62.08 18.05C62.29 18.05 62.48 18.09 62.68 18.16C62.87 18.24 63.03 18.36 63.18 18.5C63.33 18.65 63.44 18.82 63.52 19.01C63.6 19.2 63.64 19.4 63.64 19.6C63.64 19.81 63.6 20.01 63.52 20.2C63.44 20.39 63.33 20.56 63.18 20.71C63.04 20.85 62.87 20.96 62.68 21.04C62.48 21.12 62.29 21.16 62.08 21.16C61.87 21.16 61.67 21.12 61.48 21.04C61.29 20.96 61.12 20.85 60.98 20.71C60.83 20.56 60.72 20.39 60.64 20.2C60.56 20.01 60.52 19.81 60.52 19.6ZM62.08 18.36C62.77 18.36 63.34 18.91 63.33 19.61C63.34 20.3 62.77 20.86 62.08 20.86C61.73 20.86 61.44 20.73 61.2 20.49C60.95 20.25 60.83 19.95 60.83 19.61C60.83 19.26 60.95 18.97 61.2 18.72C61.44 18.48 61.73 18.35 62.08 18.36ZM62.69 20.09L62.87 20.42L62.47 20.42L62.34 20.16C62.28 20.04 62.21 19.94 62.12 19.84C62.06 19.77 62 19.76 61.85 19.76L61.8 19.76L61.79 20.42L61.46 20.42L61.46 18.81L62.27 18.81C62.61 18.81 62.77 19 62.77 19.25C62.77 19.5 62.61 19.67 62.34 19.71C62.48 19.75 62.52 19.81 62.69 20.09ZM61.79 19.06L61.79 19.5L62.13 19.5C62.36 19.5 62.43 19.39 62.43 19.28C62.43 19.13 62.31 19.06 62.09 19.06L61.79 19.06ZM46.35 22.91C47.92 21.05 50.24 19.72 53.6 19.72C59.42 19.72 60.94 23.52 60.75 27.11C60.64 29.27 59.94 31.84 59.43 33.38C57.12 40.22 54.36 44.54 48.08 44.54C45.21 44.54 42.58 43.42 41.55 40.6C39.66 42.99 36.77 44.55 33.48 44.57C30.96 44.58 29 43.69 27.76 42.16C26.28 43.79 23.78 44.54 21.3 44.54C19.07 44.54 17.2 43.76 15.98 42.43C14.62 43.81 12.47 44.54 9.75 44.47C6.25 44.39 4.3 42.29 4.24 39.38C4.14 34.88 8.43 25.58 10.2 22.76C11.42 20.75 13.12 19.77 15.37 19.77C16.6 19.77 17.87 19.99 18.66 20.82C19.3 21.5 19.41 22.11 19.45 23.25C21.43 20.07 24.77 19.63 27.83 19.63C30.17 19.63 32.11 20.51 32.93 21.83C34.5 20.5 36.76 19.65 39.47 19.65C42.24 19.65 44.31 20.33 45.6 21.79C45.88 22.11 46.08 22.35 46.35 22.91ZM15.74 38.6C15.84 37.51 15.02 36.34 11.77 36.9C12.09 36.18 12.57 35.19 13.12 34.06C14.87 30.45 17.28 25.46 17.33 23.51C17.35 22.55 16.96 21.74 15.4 21.74C13.76 21.74 12.72 22.43 11.87 23.83C10.04 26.76 6.13 35.61 6.22 39.44C6.26 41.62 7.96 42.49 9.84 42.53C12.44 42.59 15.43 41.86 15.74 38.6ZM22.36 33.9C22.15 34.48 21.74 35.7 21.41 36.99C22.48 36.73 23.28 36.54 24.65 36.57C26.21 36.61 27.21 37.26 27.21 38.55C27.21 41.68 23.75 42.61 21.35 42.61C18.71 42.61 16.39 41.11 16.39 38.22C16.39 34.84 18.22 29.71 19.94 26.3C22.06 22.1 24.22 21.54 27.93 21.54C29.57 21.54 31.45 22.24 31.45 23.78C31.45 25.92 29.64 26.74 27.84 26.84C27.07 26.89 25.89 26.93 25.19 26.88C25.19 26.88 24.59 27.79 23.96 29.41C27.28 28.94 28.69 29.7 28.13 31.62C27.37 34.22 25.12 34.39 22.36 33.9ZM36.79 27C37.23 26.38 37.82 25.81 38.72 25.81C39.82 25.81 39.72 26.39 39.45 27.14C38.71 29.26 40.96 29.32 41.5 29.28C43.46 29.12 44.54 27.86 44.81 25.7C45.17 22.76 42.7 21.64 39.56 21.64C34.33 21.64 32.28 24.83 30.32 29.4C29.4 31.55 28.24 35.22 28.25 37.56C28.24 40.84 30.24 42.62 33.46 42.62C38.16 42.62 41.48 38.87 42.43 34.2C42.72 32.77 43.08 30.07 39.43 30.22C37.58 30.3 36.46 30.7 35.87 32.6C35.27 34.55 37.47 34.6 37.47 34.6C37.02 36.62 35.73 37.84 34.57 37.84C33.85 37.84 33.2 37.53 33.42 36C33.74 33.77 35.83 28.35 36.79 27ZM58.47 29.67C57.91 32.42 56.67 35.68 55.32 38.11C53.12 42.07 50.45 42.62 48.11 42.59C45.77 42.56 43.14 41.7 43.12 38.1C43.11 35.51 44.22 31.86 45.17 29.47C46.82 25.13 48.51 21.6 53.84 21.66C60.06 21.73 58.95 27.26 58.47 29.67ZM50.67 36.73C51.53 35.26 53.97 28.62 54.03 26.96C54.05 26.47 53.97 25.91 53.19 25.9C52.66 25.89 52.19 26 51.77 26.64C50.83 27.87 48.08 35.38 48.13 36.88C48.15 37.42 48.45 37.89 49.11 37.89C49.87 37.89 50.29 37.36 50.67 36.73Z" fill="#000000" fill-opacity="1.000000" fill-rule="evenodd"/>
	</g>
</svg>
