<svg width="130.000000" height="130.000000" viewBox="0 0 130 130" fill="none" xmlns="http://www.w3.org/2000/svg" xmlns:xlink="http://www.w3.org/1999/xlink">
	<desc>
			Created with Pixso.
	</desc>
	<defs/>
	<path id="Vector" d="M63.4 118.82L63.4 123.61C53.34 123.32 44.03 120.67 35.47 115.67C26.91 110.66 20.07 104 14.94 95.68L19.15 93.21C20.55 95.58 22.31 97.98 24.44 100.4L29.16 96.26C36.32 104.39 45.21 109.51 55.85 111.64L54.62 117.88C57.76 118.46 60.69 118.78 63.4 118.82ZM20.02 80.37L14 82.41C15.06 85.31 16.25 88.02 17.55 90.53L13.42 92.92C8.68 84.22 6.31 74.91 6.31 65C6.31 55.08 8.68 45.77 13.42 37.07L17.55 39.46C16.1 42.17 14.92 44.88 14 47.58L19.94 49.62C18.25 54.45 17.41 59.58 17.41 65C17.41 70.27 18.28 75.39 20.02 80.37ZM110.84 93.21L115.05 95.68C109.92 104 103.08 110.66 94.52 115.67C85.96 120.67 76.65 123.32 66.59 123.61L66.59 118.82C69.3 118.78 72.23 118.46 75.37 117.88L74.14 111.64C84.78 109.51 93.67 104.39 100.83 96.26L105.55 100.4C107.68 97.98 109.44 95.58 110.84 93.21ZM99.89 53.03L82.99 58.83C83.66 60.86 84 62.92 84 65C84 67.07 83.66 69.13 82.99 71.16L99.82 76.96C98.32 81.41 95.95 85.5 92.71 89.22L79.29 77.47C76.53 80.71 72.97 82.77 68.62 83.64L72.1 101.12C69.59 101.61 67.22 101.85 65 101.85C62.77 101.85 60.4 101.61 57.89 101.12L61.37 83.64C57.02 82.77 53.46 80.71 50.7 77.47L37.28 89.22C34.04 85.5 31.67 81.41 30.17 76.96L47 71.16C46.33 69.13 45.99 67.07 45.99 65C45.99 62.92 46.33 60.86 47 58.83L30.1 53.03C31.7 48.53 34.09 44.44 37.28 40.77L50.7 52.52C53.56 49.23 57.11 47.15 61.37 46.28L57.89 28.87C60.01 28.38 62.38 28.14 65 28.14C67.61 28.14 69.98 28.38 72.1 28.87L68.62 46.28C72.88 47.15 76.43 49.23 79.29 52.52L92.71 40.77C95.9 44.44 98.29 48.53 99.89 53.03ZM63.4 6.38L63.4 11.17C60.26 11.26 57.33 11.58 54.62 12.11L55.85 18.35C45.21 20.38 36.32 25.48 29.16 33.66L24.44 29.59C22.6 31.62 20.84 33.99 19.15 36.7L15.01 34.31C20.14 25.99 26.96 19.33 35.47 14.32C43.98 9.32 53.29 6.67 63.4 6.38ZM123.68 65C123.68 74.91 121.31 84.22 116.57 92.92L112.44 90.53C113.75 88.02 114.93 85.31 115.99 82.41L109.97 80.37C111.71 75.39 112.58 70.27 112.58 65C112.58 59.58 111.74 54.45 110.05 49.62L115.99 47.58C115.08 44.88 113.89 42.17 112.44 39.46L116.57 37.07C121.31 45.77 123.68 55.08 123.68 65ZM114.98 34.31L110.84 36.7C109.15 33.99 107.39 31.62 105.55 29.59L100.83 33.66C93.67 25.48 84.78 20.38 74.14 18.35L75.37 12.11C72.66 11.58 69.73 11.26 66.59 11.17L66.59 6.38C76.7 6.67 86.01 9.32 94.52 14.32C103.03 19.33 109.85 25.99 114.98 34.31ZM126.8 65C126.8 56.63 125.17 48.62 121.91 40.98C118.64 33.34 114.25 26.76 108.74 21.25C103.23 15.74 96.65 11.35 89.01 8.08C81.37 4.82 73.36 3.19 65 3.19C56.63 3.19 48.62 4.82 40.98 8.08C33.34 11.35 26.76 15.74 21.25 21.25C15.74 26.76 11.35 33.34 8.08 40.98C4.82 48.62 3.19 56.63 3.19 65C3.19 73.36 4.82 81.37 8.08 89.01C11.35 96.65 15.74 103.23 21.25 108.74C26.76 114.25 33.34 118.64 40.98 121.91C48.62 125.17 56.63 126.8 65 126.8C73.36 126.8 81.37 125.17 89.01 121.91C96.65 118.64 103.23 114.25 108.74 108.74C114.25 103.23 118.64 96.65 121.91 89.01C125.17 81.37 126.8 73.36 126.8 65ZM130 65C130 73.8 128.28 82.21 124.84 90.24C121.41 98.27 116.79 105.19 110.99 110.99C105.19 116.79 98.27 121.41 90.24 124.84C82.21 128.28 73.8 130 65 130C56.19 130 47.78 128.28 39.75 124.84C31.72 121.41 24.81 116.79 19 110.99C13.2 105.19 8.58 98.27 5.15 90.24C1.71 82.21 0 73.8 0 65C0 56.19 1.71 47.78 5.15 39.75C8.58 31.72 13.2 24.81 19 19C24.81 13.2 31.72 8.58 39.75 5.15C47.78 1.71 56.19 0 65 0C73.8 0 82.21 1.71 90.24 5.15C98.27 8.58 105.19 13.2 110.99 19C116.79 24.81 121.41 31.72 124.84 39.75C128.28 47.78 130 56.19 130 65Z" fill="#FFFFFF" fill-opacity="1.000000" fill-rule="nonzero"/>
</svg>
