<svg width="16.000000" height="16.000000" viewBox="0 0 16 16" fill="none" xmlns="http://www.w3.org/2000/svg" xmlns:xlink="http://www.w3.org/1999/xlink">
	<desc>
			Created with Pixso.
	</desc>
	<defs/>
	<path id="Vector" d="M7.8 14.62L7.8 15.21C6.56 15.17 5.41 14.85 4.36 14.23C3.31 13.62 2.47 12.8 1.83 11.77L2.35 11.47C2.52 11.76 2.74 12.05 3 12.35L3.58 11.84C4.47 12.84 5.56 13.47 6.87 13.74L6.72 14.5C7.11 14.58 7.47 14.61 7.8 14.62ZM2.46 9.89L1.72 10.14C1.85 10.5 2 10.83 2.16 11.14L1.65 11.43C1.06 10.36 0.77 9.22 0.77 8C0.77 6.77 1.06 5.63 1.65 4.56L2.16 4.85C1.98 5.19 1.83 5.52 1.72 5.85L2.45 6.1C2.24 6.7 2.14 7.33 2.14 8C2.14 8.64 2.25 9.27 2.46 9.89ZM13.64 11.47L14.16 11.77C13.52 12.8 12.68 13.62 11.63 14.23C10.58 14.85 9.43 15.17 8.19 15.21L8.19 14.62C8.52 14.61 8.88 14.58 9.27 14.5L9.12 13.74C10.43 13.47 11.52 12.84 12.41 11.84L12.99 12.35C13.25 12.05 13.47 11.76 13.64 11.47ZM12.29 6.52L10.21 7.24C10.29 7.49 10.33 7.74 10.33 8C10.33 8.25 10.29 8.5 10.21 8.75L12.28 9.47C12.1 10.02 11.8 10.52 11.41 10.98L9.75 9.53C9.41 9.93 8.98 10.18 8.44 10.29L8.87 12.44C8.56 12.5 8.27 12.53 8 12.53C7.72 12.53 7.43 12.5 7.12 12.44L7.55 10.29C7.01 10.18 6.58 9.93 6.24 9.53L4.58 10.98C4.19 10.52 3.89 10.02 3.71 9.47L5.78 8.75C5.7 8.5 5.66 8.25 5.66 8C5.66 7.74 5.7 7.49 5.78 7.24L3.7 6.52C3.9 5.97 4.19 5.47 4.58 5.01L6.24 6.46C6.59 6.05 7.02 5.8 7.55 5.69L7.12 3.55C7.38 3.49 7.67 3.46 8 3.46C8.32 3.46 8.61 3.49 8.87 3.55L8.44 5.69C8.97 5.8 9.4 6.05 9.75 6.46L11.41 5.01C11.8 5.47 12.09 5.97 12.29 6.52ZM7.8 0.78L7.8 1.37C7.41 1.38 7.05 1.42 6.72 1.49L6.87 2.25C5.56 2.5 4.47 3.13 3.58 4.14L3 3.64C2.78 3.89 2.56 4.18 2.35 4.51L1.84 4.22C2.47 3.19 3.31 2.37 4.36 1.76C5.41 1.14 6.55 0.82 7.8 0.78ZM15.22 8C15.22 9.22 14.93 10.36 14.34 11.43L13.83 11.14C14 10.83 14.14 10.5 14.27 10.14L13.53 9.89C13.75 9.27 13.85 8.64 13.85 8C13.85 7.33 13.75 6.7 13.54 6.1L14.27 5.85C14.16 5.52 14.01 5.19 13.83 4.85L14.34 4.56C14.93 5.63 15.22 6.77 15.22 8ZM14.15 4.22L13.64 4.51C13.43 4.18 13.21 3.89 12.99 3.64L12.41 4.14C11.52 3.13 10.43 2.5 9.12 2.25L9.27 1.49C8.94 1.42 8.58 1.38 8.19 1.37L8.19 0.78C9.44 0.82 10.58 1.14 11.63 1.76C12.68 2.37 13.52 3.19 14.15 4.22ZM15.6 8C15.6 6.97 15.4 5.98 15 5.04C14.6 4.1 14.06 3.29 13.38 2.61C12.7 1.93 11.89 1.39 10.95 0.99C10.01 0.59 9.02 0.39 8 0.39C6.97 0.39 5.98 0.59 5.04 0.99C4.1 1.39 3.29 1.93 2.61 2.61C1.93 3.29 1.39 4.1 0.99 5.04C0.59 5.98 0.39 6.97 0.39 8C0.39 9.02 0.59 10.01 0.99 10.95C1.39 11.89 1.93 12.7 2.61 13.38C3.29 14.06 4.1 14.6 5.04 15C5.98 15.4 6.97 15.6 8 15.6C9.02 15.6 10.01 15.4 10.95 15C11.89 14.6 12.7 14.06 13.38 13.38C14.06 12.7 14.6 11.89 15 10.95C15.4 10.01 15.6 9.02 15.6 8ZM16 8C16 9.08 15.78 10.11 15.36 11.1C14.94 12.09 14.37 12.94 13.66 13.66C12.94 14.37 12.09 14.94 11.1 15.36C10.11 15.78 9.08 16 8 16C6.91 16 5.88 15.78 4.89 15.36C3.9 14.94 3.05 14.37 2.33 13.66C1.62 12.94 1.05 12.09 0.63 11.1C0.21 10.11 0 9.08 0 8C0 6.91 0.21 5.88 0.63 4.89C1.05 3.9 1.62 3.05 2.33 2.33C3.05 1.62 3.9 1.05 4.89 0.63C5.88 0.21 6.91 0 8 0C9.08 0 10.11 0.21 11.1 0.63C12.09 1.05 12.94 1.62 13.66 2.33C14.37 3.05 14.94 3.9 15.36 4.89C15.78 5.88 16 6.91 16 8Z" fill="#FFFFFF" fill-opacity="1.000000" fill-rule="nonzero"/>
</svg>
