<svg width="180.000000" height="180.000000" viewBox="0 0 180 180" fill="none" xmlns="http://www.w3.org/2000/svg" xmlns:xlink="http://www.w3.org/1999/xlink">
	<desc>
			Created with Pixso.
	</desc>
	<defs/>
	<path id="Vector" d="M87.79 164.53L87.79 171.16C73.86 170.75 60.97 167.09 49.11 160.16C37.26 153.23 27.79 144 20.69 132.48L26.51 129.07C28.45 132.35 30.9 135.67 33.85 139.01L40.37 133.29C50.29 144.54 62.61 151.64 77.34 154.58L75.63 163.22C79.98 164.02 84.04 164.46 87.79 164.53ZM27.72 111.29L19.38 114.1C20.85 118.12 22.5 121.87 24.3 125.35L18.58 128.67C12.02 116.61 8.73 103.72 8.73 90C8.73 76.27 12.02 63.38 18.58 51.32L24.3 54.64C22.29 58.39 20.65 62.14 19.38 65.89L27.62 68.7C25.27 75.4 24.1 82.5 24.1 90C24.1 97.29 25.31 104.39 27.72 111.29ZM153.48 129.07L159.3 132.48C152.21 144 142.73 153.23 130.88 160.16C119.02 167.09 106.13 170.75 92.2 171.16L92.2 164.53C95.95 164.46 100.01 164.02 104.36 163.22L102.65 154.58C117.38 151.64 129.71 144.54 139.62 133.29L146.14 139.01C149.09 135.67 151.53 132.35 153.48 129.07ZM138.31 73.42L114.91 81.46C115.84 84.27 116.31 87.12 116.31 90C116.31 92.87 115.84 95.72 114.91 98.53L138.21 106.57C136.13 112.73 132.85 118.39 128.37 123.54L109.78 107.27C105.97 111.76 101.04 114.6 95.02 115.81L99.84 140.02C96.36 140.69 93.08 141.02 90 141.02C86.91 141.02 83.63 140.69 80.15 140.02L84.97 115.81C78.95 114.6 74.02 111.76 70.21 107.27L51.62 123.54C47.14 118.39 43.86 112.73 41.78 106.57L65.08 98.53C64.15 95.72 63.68 92.87 63.68 90C63.68 87.12 64.15 84.27 65.08 81.46L41.68 73.42C43.89 67.19 47.2 61.54 51.62 56.45L70.21 72.72C74.16 68.16 79.08 65.29 84.97 64.08L80.15 39.97C83.1 39.3 86.38 38.97 90 38.97C93.61 38.97 96.89 39.3 99.84 39.97L95.02 64.08C100.91 65.29 105.83 68.16 109.78 72.72L128.37 56.45C132.78 61.54 136.1 67.19 138.31 73.42ZM87.79 8.83L87.79 15.46C83.43 15.6 79.38 16.03 75.63 16.77L77.34 25.41C62.61 28.22 50.29 35.29 40.37 46.6L33.85 40.98C31.3 43.79 28.86 47.07 26.51 50.82L20.79 47.51C27.89 35.99 37.33 26.76 49.11 19.83C60.9 12.9 73.79 9.24 87.79 8.83ZM171.26 90C171.26 103.72 167.98 116.61 161.41 128.67L155.69 125.35C157.5 121.87 159.14 118.12 160.61 114.1L152.27 111.29C154.68 104.39 155.89 97.29 155.89 90C155.89 82.5 154.72 75.4 152.37 68.7L160.61 65.89C159.34 62.14 157.7 58.39 155.69 54.64L161.41 51.32C167.98 63.38 171.26 76.27 171.26 90ZM159.2 47.51L153.48 50.82C151.13 47.07 148.69 43.79 146.14 40.98L139.62 46.6C129.71 35.29 117.38 28.22 102.65 25.41L104.36 16.77C100.61 16.03 96.56 15.6 92.2 15.46L92.2 8.83C106.2 9.24 119.09 12.9 130.88 19.83C142.66 26.76 152.1 35.99 159.2 47.51ZM175.58 90C175.58 78.41 173.32 67.33 168.8 56.75C164.28 46.17 158.2 37.06 150.56 29.43C142.93 21.79 133.82 15.71 123.24 11.19C112.66 6.67 101.58 4.41 90 4.41C78.41 4.41 67.33 6.67 56.75 11.19C46.17 15.71 37.06 21.79 29.43 29.43C21.79 37.06 15.71 46.17 11.19 56.75C6.67 67.33 4.41 78.41 4.41 90C4.41 101.58 6.67 112.66 11.19 123.24C15.71 133.82 21.79 142.93 29.43 150.56C37.06 158.2 46.17 164.28 56.75 168.8C67.33 173.32 78.41 175.58 90 175.58C101.58 175.58 112.66 173.32 123.24 168.8C133.82 164.28 142.93 158.2 150.56 150.56C158.2 142.93 164.28 133.82 168.8 123.24C173.32 112.66 175.58 101.58 175.58 90ZM180 90C180 102.18 177.62 113.83 172.86 124.95C168.11 136.07 161.71 145.64 153.68 153.68C145.64 161.71 136.07 168.11 124.95 172.86C113.83 177.62 102.18 180 90 180C77.81 180 66.16 177.62 55.04 172.86C43.92 168.11 34.35 161.71 26.31 153.68C18.28 145.64 11.88 136.07 7.13 124.95C2.37 113.83 0 102.18 0 90C0 77.81 2.37 66.16 7.13 55.04C11.88 43.92 18.28 34.35 26.31 26.31C34.35 18.28 43.92 11.88 55.04 7.13C66.16 2.37 77.81 0 90 0C102.18 0 113.83 2.37 124.95 7.13C136.07 11.88 145.64 18.28 153.68 26.31C161.71 34.35 168.11 43.92 172.86 55.04C177.62 66.16 180 77.81 180 90Z" fill="#FFFFFF" fill-opacity="1.000000" fill-rule="nonzero"/>
</svg>
