<svg width="32.000000" height="32.000000" viewBox="0 0 32 32" fill="none" xmlns="http://www.w3.org/2000/svg" xmlns:xlink="http://www.w3.org/1999/xlink">
	<desc>
			Created with Pixso.
	</desc>
	<defs/>
	<path id="Vector" d="M15.6 29.25L15.6 30.42C13.13 30.35 10.83 29.7 8.73 28.47C6.62 27.24 4.94 25.6 3.67 23.55L4.71 22.94C5.05 23.52 5.49 24.11 6.01 24.71L7.17 23.69C8.94 25.69 11.13 26.95 13.75 27.48L13.44 29.01C14.22 29.16 14.94 29.23 15.6 29.25ZM4.92 19.78L3.44 20.28C3.7 21 4 21.66 4.32 22.28L3.3 22.87C2.13 20.73 1.55 18.44 1.55 16C1.55 13.55 2.13 11.26 3.3 9.12L4.32 9.71C3.96 10.38 3.67 11.04 3.44 11.71L4.91 12.21C4.49 13.4 4.28 14.66 4.28 16C4.28 17.29 4.5 18.55 4.92 19.78ZM27.28 22.94L28.32 23.55C27.05 25.6 25.37 27.24 23.26 28.47C21.16 29.7 18.86 30.35 16.39 30.42L16.39 29.25C17.05 29.23 17.77 29.16 18.55 29.01L18.25 27.48C20.86 26.95 23.05 25.69 24.82 23.69L25.98 24.71C26.5 24.11 26.94 23.52 27.28 22.94ZM24.58 13.05L20.42 14.48C20.59 14.98 20.67 15.48 20.67 16C20.67 16.51 20.59 17.01 20.42 17.51L24.57 18.94C24.2 20.04 23.61 21.04 22.82 21.96L19.51 19.07C18.83 19.86 17.96 20.37 16.89 20.58L17.75 24.89C17.13 25.01 16.54 25.07 16 25.07C15.45 25.07 14.86 25.01 14.25 24.89L15.1 20.58C14.03 20.37 13.16 19.86 12.48 19.07L9.17 21.96C8.38 21.04 7.79 20.04 7.42 18.94L11.57 17.51C11.4 17.01 11.32 16.51 11.32 16C11.32 15.48 11.4 14.98 11.57 14.48L7.41 13.05C7.8 11.94 8.39 10.94 9.17 10.03L12.48 12.92C13.18 12.11 14.05 11.6 15.1 11.39L14.25 7.1C14.77 6.98 15.35 6.92 16 6.92C16.64 6.92 17.22 6.98 17.75 7.1L16.89 11.39C17.94 11.6 18.81 12.11 19.51 12.92L22.82 10.03C23.6 10.94 24.19 11.94 24.58 13.05ZM15.6 1.57L15.6 2.75C14.83 2.77 14.11 2.85 13.44 2.98L13.75 4.51C11.13 5.01 8.94 6.27 7.17 8.28L6.01 7.28C5.56 7.78 5.13 8.36 4.71 9.03L3.69 8.44C4.95 6.39 6.63 4.75 8.73 3.52C10.82 2.29 13.11 1.64 15.6 1.57ZM30.44 16C30.44 18.44 29.86 20.73 28.69 22.87L27.67 22.28C28 21.66 28.29 21 28.55 20.28L27.07 19.78C27.5 18.55 27.71 17.29 27.71 16C27.71 14.66 27.5 13.4 27.08 12.21L28.55 11.71C28.32 11.04 28.03 10.38 27.67 9.71L28.69 9.12C29.86 11.26 30.44 13.55 30.44 16ZM28.3 8.44L27.28 9.03C26.86 8.36 26.43 7.78 25.98 7.28L24.82 8.28C23.05 6.27 20.86 5.01 18.25 4.51L18.55 2.98C17.88 2.85 17.16 2.77 16.39 2.75L16.39 1.57C18.88 1.64 21.17 2.29 23.26 3.52C25.36 4.75 27.04 6.39 28.3 8.44ZM31.21 16C31.21 13.94 30.81 11.97 30 10.08C29.2 8.2 28.12 6.58 26.76 5.23C25.41 3.87 23.79 2.79 21.91 1.99C20.02 1.18 18.05 0.78 16 0.78C13.94 0.78 11.97 1.18 10.08 1.99C8.2 2.79 6.58 3.87 5.23 5.23C3.87 6.58 2.79 8.2 1.99 10.08C1.18 11.97 0.78 13.94 0.78 16C0.78 18.05 1.18 20.02 1.99 21.91C2.79 23.79 3.87 25.41 5.23 26.76C6.58 28.12 8.2 29.2 10.08 30C11.97 30.81 13.94 31.21 16 31.21C18.05 31.21 20.02 30.81 21.91 30C23.79 29.2 25.41 28.12 26.76 26.76C28.12 25.41 29.2 23.79 30 21.91C30.81 20.02 31.21 18.05 31.21 16ZM32 16C32 18.16 31.57 20.23 30.73 22.21C29.88 24.19 28.75 25.89 27.32 27.32C25.89 28.75 24.19 29.88 22.21 30.73C20.23 31.57 18.16 32 16 32C13.83 32 11.76 31.57 9.78 30.73C7.8 29.88 6.1 28.75 4.67 27.32C3.25 25.89 2.11 24.19 1.26 22.21C0.42 20.23 0 18.16 0 16C0 13.83 0.42 11.76 1.26 9.78C2.11 7.8 3.25 6.1 4.67 4.67C6.1 3.25 7.8 2.11 9.78 1.26C11.76 0.42 13.83 0 16 0C18.16 0 20.23 0.42 22.21 1.26C24.19 2.11 25.89 3.25 27.32 4.67C28.75 6.1 29.88 7.8 30.73 9.78C31.57 11.76 32 13.83 32 16Z" fill="#FFFFFF" fill-opacity="1.000000" fill-rule="nonzero"/>
</svg>
