<svg width="207.000000" height="60.000000" viewBox="0 0 207 60" fill="none" xmlns="http://www.w3.org/2000/svg" xmlns:xlink="http://www.w3.org/1999/xlink">
	<desc>
			Created with Pixso.
	</desc>
	<defs/>
	<path id="logo text" d="M78.39 12.01L78.39 16.73L71.46 16.73Q71.51 16.8 76.95 22.46Q77.5 23.27 77.64 24.15Q77.69 24.45 77.69 24.75Q77.69 25.57 77.42 26.28Q77.13 27.07 76.51 27.73Q75.81 28.47 74.96 28.77Q74.35 29 73.66 29L64.94 29L64.94 24.27L72.31 24.27L66.84 18.57Q66.72 18.42 66.62 18.27Q66.09 17.43 66.09 16.26Q66.09 15.38 66.39 14.63Q66.68 13.9 67.26 13.28Q67.93 12.57 68.75 12.26Q69.38 12.01 70.11 12.01L78.39 12.01ZM81.16 16.73L81.16 12.01L94.6 12.01L94.6 16.73L90.24 16.73L90.24 29L85.52 29L85.52 16.73L81.16 16.73ZM93.96 29L100.69 12.01L106.38 12.01L112.88 29L107.45 29L106.81 27.32L100.26 27.32L99.62 29L93.96 29ZM130.15 15.9Q130.62 17.02 130.62 18.33Q130.62 19.29 130.35 20.17Q130.09 21.03 129.57 21.81Q129.05 22.6 128.36 23.18Q127.7 23.73 126.88 24.1Q127.74 24.27 128.85 24.27L130.26 24.27L130.26 29L128.85 29Q124.22 29 121.74 26.68Q121.56 26.51 121.38 26.32Q121.22 26.15 121.07 25.96L121.07 29L116.34 29L116.34 12.01L124.36 12.01Q125.66 12.03 126.77 12.49Q127.87 12.96 128.79 13.89Q129.69 14.8 130.15 15.9ZM146.2 12.01L147.63 18.27L149.07 12.01L154.38 12.01L150.24 29L145.02 29L144.16 22.67L142.61 29L137.97 29L134.08 12.01L139.16 12.01L140.59 18.27L142.03 12.01L146.2 12.01ZM154.33 29L161.06 12.01L166.75 12.01L173.24 29L167.82 29L167.17 27.32L160.62 27.32L159.99 29L154.33 29ZM190.52 15.9Q190.98 17.02 190.98 18.33Q190.98 19.29 190.72 20.17Q190.46 21.03 189.94 21.81Q189.6 22.32 189.19 22.76Q188.36 23.65 187.24 24.27L200.76 24.27L195.29 18.57Q195.18 18.42 195.08 18.27Q194.54 17.43 194.54 16.26Q194.54 15.38 194.84 14.63Q195.14 13.9 195.71 13.28Q196.38 12.57 197.2 12.26Q197.84 12.01 198.56 12.01L206.85 12.01L206.85 16.73L199.91 16.73Q199.97 16.8 205.41 22.46Q205.96 23.27 206.1 24.15Q206.14 24.45 206.14 24.75Q206.14 25.57 205.88 26.28Q205.58 27.07 204.96 27.73Q204.26 28.47 203.41 28.77Q202.8 29 202.11 29L184.23 29L181.43 25.96L181.43 29L176.71 29L176.71 12.01L184.72 12.01Q186.02 12.03 187.13 12.49Q188.24 12.96 189.15 13.89Q190.06 14.8 190.52 15.9ZM121.07 17.42L121.07 19.74L123.94 19.74Q124.18 19.74 124.38 19.65Q124.59 19.57 124.76 19.4Q124.93 19.23 125.01 19.02Q125.1 18.82 125.1 18.58Q125.1 18.34 125.01 18.13Q124.93 17.93 124.76 17.76Q124.59 17.59 124.38 17.5Q124.18 17.42 123.94 17.42L121.07 17.42ZM181.43 17.42L181.43 19.74L184.3 19.74Q184.54 19.74 184.75 19.65Q184.95 19.57 185.12 19.4Q185.29 19.23 185.38 19.02Q185.46 18.82 185.46 18.58Q185.46 18.34 185.38 18.13Q185.29 17.93 185.12 17.76Q184.95 17.59 184.75 17.5Q184.54 17.42 184.3 17.42L181.43 17.42ZM103.54 18.65L101.93 22.89L105.14 22.89L103.54 18.65ZM163.9 18.65L162.3 22.89L165.51 22.89L163.9 18.65ZM69.14 47L66 47L66 35.67L69.14 35.67L69.14 47ZM73.63 35.67L77.82 41.56L77.82 35.67L80.97 35.67L80.97 47L77.82 47L73.64 41.1L73.64 47L70.49 47L70.49 35.67L73.63 35.67ZM82.32 47L82.32 35.67L90.52 35.67L90.52 38.82L85.47 38.82L85.47 39.76L89.74 39.76L89.74 42.91L85.47 42.91L85.47 47L82.32 47ZM94.87 36.1Q95.88 35.67 97.07 35.67L97.93 35.67Q99.12 35.67 100.13 36.1Q101.12 36.51 101.94 37.33Q102.76 38.16 103.18 39.15Q103.59 40.16 103.59 41.33Q103.59 42.52 103.17 43.54Q102.75 44.52 101.94 45.34Q101.12 46.16 100.13 46.57Q99.12 47 97.93 47L97.07 47Q95.88 47 94.87 46.57Q93.88 46.16 93.06 45.34Q92.25 44.52 91.83 43.54Q91.41 42.52 91.41 41.33Q91.41 40.16 91.82 39.15Q92.24 38.16 93.06 37.33Q93.88 36.51 94.87 36.1ZM114.15 38.26Q114.46 39.01 114.46 39.89Q114.46 40.53 114.28 41.11Q114.11 41.68 113.77 42.21Q113.42 42.73 112.95 43.12Q112.51 43.49 111.97 43.73Q112.55 43.85 113.28 43.85L114.23 43.85L114.23 47L113.28 47Q110.19 47 108.54 45.45Q108.42 45.34 108.3 45.21Q108.19 45.1 108.09 44.97L108.09 47L104.94 47L104.94 35.67L110.29 35.67Q111.16 35.68 111.89 35.99Q112.63 36.31 113.24 36.92Q113.84 37.53 114.15 38.26ZM119.35 35.67L122 40.79L124.26 35.67L128.19 35.67L128.19 47L125.05 47L125.05 42.03L122 46.95L118.96 42.03L118.96 47L115.81 47L115.81 35.67L119.35 35.67ZM129.54 47L134.03 35.67L137.83 35.67L142.15 47L138.54 47L138.11 45.88L133.74 45.88L133.32 47L129.54 47ZM140.85 38.82L140.85 35.67L149.81 35.67L149.81 38.82L146.9 38.82L146.9 47L143.75 47L143.75 38.82L140.85 38.82ZM154.31 47L151.16 47L151.16 35.67L154.31 35.67L154.31 47ZM159.12 36.1Q160.13 35.67 161.32 35.67L162.18 35.67Q163.37 35.67 164.39 36.1Q165.37 36.51 166.19 37.33Q167.02 38.16 167.43 39.15Q167.85 40.16 167.85 41.33Q167.85 42.52 167.42 43.54Q167.01 44.52 166.19 45.34Q165.37 46.16 164.39 46.57Q163.37 47 162.18 47L161.32 47Q160.13 47 159.12 46.57Q158.13 46.16 157.32 45.34Q156.5 44.52 156.08 43.54Q155.66 42.52 155.66 41.33Q155.66 40.16 156.07 39.15Q156.49 38.16 157.32 37.33Q158.13 36.51 159.12 36.1ZM172.33 35.67L176.53 41.56L176.53 35.67L179.67 35.67L179.67 47L176.53 47L172.35 41.1L172.35 47L169.2 47L169.2 35.67L172.33 35.67ZM96.08 43.65Q96.53 43.85 97.07 43.85L97.93 43.85Q98.47 43.85 98.92 43.65Q99.35 43.47 99.71 43.11Q100.08 42.75 100.26 42.31Q100.45 41.86 100.45 41.33Q100.45 40.78 100.25 40.32Q100.07 39.9 99.73 39.55Q99.39 39.21 98.98 39.03Q98.5 38.82 97.93 38.82L97.07 38.82Q96.5 38.82 96.02 39.03Q95.61 39.21 95.27 39.55Q94.93 39.9 94.75 40.32Q94.55 40.78 94.55 41.33Q94.55 41.86 94.74 42.31Q94.92 42.75 95.29 43.11Q95.65 43.47 96.08 43.65ZM160.33 43.65Q160.78 43.85 161.32 43.85L162.18 43.85Q162.72 43.85 163.17 43.65Q163.61 43.47 163.96 43.11Q164.33 42.75 164.52 42.31Q164.71 41.86 164.71 41.33Q164.71 40.78 164.51 40.32Q164.33 39.9 163.98 39.55Q163.64 39.21 163.23 39.03Q162.75 38.82 162.18 38.82L161.32 38.82Q160.75 38.82 160.27 39.03Q159.86 39.21 159.53 39.55Q159.18 39.9 159 40.32Q158.8 40.78 158.8 41.33Q158.8 41.86 158.99 42.31Q159.17 42.75 159.54 43.11Q159.9 43.47 160.33 43.65ZM108.09 39.28L108.09 40.82L110.01 40.82Q110.17 40.82 110.3 40.77Q110.44 40.71 110.55 40.6Q110.67 40.48 110.72 40.35Q110.78 40.21 110.78 40.05Q110.78 39.89 110.72 39.75Q110.67 39.62 110.55 39.5Q110.44 39.39 110.3 39.33Q110.17 39.28 110.01 39.28L108.09 39.28ZM135.93 40.1L134.86 42.92L137 42.92L135.93 40.1Z" fill="#FFFFFF" fill-opacity="1.000000" fill-rule="evenodd"/>
	<path id="Vector" d="M29.26 54.84L29.26 57.05C24.62 56.91 20.32 55.69 16.37 53.38C12.42 51.07 9.26 48 6.89 44.16L8.83 43.02C9.48 44.11 10.3 45.22 11.28 46.33L13.45 44.43C16.76 48.18 20.87 50.54 25.78 51.52L25.21 54.4C26.66 54.67 28.01 54.82 29.26 54.84ZM9.24 37.09L6.46 38.03C6.95 39.37 7.5 40.62 8.1 41.78L6.19 42.89C4 38.87 2.91 34.57 2.91 30C2.91 25.42 4 21.12 6.19 17.1L8.1 18.21C7.43 19.46 6.88 20.71 6.46 21.96L9.2 22.9C8.42 25.13 8.03 27.5 8.03 30C8.03 32.43 8.43 34.79 9.24 37.09ZM51.16 43.02L53.1 44.16C50.73 48 47.57 51.07 43.62 53.38C39.67 55.69 35.37 56.91 30.73 57.05L30.73 54.84C31.98 54.82 33.33 54.67 34.78 54.4L34.21 51.52C39.12 50.54 43.23 48.18 46.54 44.43L48.71 46.33C49.69 45.22 50.51 44.11 51.16 43.02ZM46.1 24.47L38.3 27.15C38.61 28.09 38.77 29.04 38.77 30C38.77 30.95 38.61 31.9 38.3 32.84L46.07 35.52C45.37 37.57 44.28 39.46 42.79 41.18L36.59 35.75C35.32 37.25 33.68 38.2 31.67 38.6L33.28 46.67C32.12 46.89 31.02 47 30 47C28.97 47 27.87 46.89 26.71 46.67L28.32 38.6C26.31 38.2 24.67 37.25 23.4 35.75L17.2 41.18C15.71 39.46 14.62 37.57 13.92 35.52L21.69 32.84C21.38 31.9 21.22 30.95 21.22 30C21.22 29.04 21.38 28.09 21.69 27.15L13.89 24.47C14.63 22.39 15.73 20.51 17.2 18.81L23.4 24.24C24.72 22.72 26.36 21.76 28.32 21.36L26.71 13.32C27.7 13.1 28.79 12.99 30 12.99C31.2 12.99 32.29 13.1 33.28 13.32L31.67 21.36C33.63 21.76 35.27 22.72 36.59 24.24L42.79 18.81C44.26 20.51 45.36 22.39 46.1 24.47ZM29.26 2.94L29.26 5.15C27.81 5.2 26.46 5.34 25.21 5.59L25.78 8.47C20.87 9.4 16.76 11.76 13.45 15.53L11.28 13.66C10.43 14.59 9.62 15.69 8.83 16.94L6.93 15.83C9.29 11.99 12.44 8.92 16.37 6.61C20.3 4.3 24.59 3.08 29.26 2.94ZM57.08 30C57.08 34.57 55.99 38.87 53.8 42.89L51.89 41.78C52.5 40.62 53.04 39.37 53.53 38.03L50.75 37.09C51.56 34.79 51.96 32.43 51.96 30C51.96 27.5 51.57 25.13 50.79 22.9L53.53 21.96C53.11 20.71 52.56 19.46 51.89 18.21L53.8 17.1C55.99 21.12 57.08 25.42 57.08 30ZM53.06 15.83L51.16 16.94C50.37 15.69 49.56 14.59 48.71 13.66L46.54 15.53C43.23 11.76 39.12 9.4 34.21 8.47L34.78 5.59C33.53 5.34 32.18 5.2 30.73 5.15L30.73 2.94C35.4 3.08 39.69 4.3 43.62 6.61C47.55 8.92 50.7 11.99 53.06 15.83ZM58.52 30C58.52 26.13 57.77 22.44 56.26 18.91C54.76 15.39 52.73 12.35 50.18 9.81C47.64 7.26 44.6 5.23 41.08 3.73C37.55 2.22 33.86 1.47 30 1.47C26.13 1.47 22.44 2.22 18.91 3.73C15.39 5.23 12.35 7.26 9.81 9.81C7.26 12.35 5.23 15.39 3.73 18.91C2.22 22.44 1.47 26.13 1.47 30C1.47 33.86 2.22 37.55 3.73 41.08C5.23 44.6 7.26 47.64 9.81 50.18C12.35 52.73 15.39 54.76 18.91 56.26C22.44 57.77 26.13 58.52 30 58.52C33.86 58.52 37.55 57.77 41.08 56.26C44.6 54.76 47.64 52.73 50.18 50.18C52.73 47.64 54.76 44.6 56.26 41.08C57.77 37.55 58.52 33.86 58.52 30ZM60 30C60 34.06 59.2 37.94 57.62 41.65C56.03 45.35 53.9 48.54 51.22 51.22C48.54 53.9 45.35 56.03 41.65 57.62C37.94 59.2 34.06 60 30 60C25.93 60 22.05 59.2 18.34 57.62C14.64 56.03 11.45 53.9 8.77 51.22C6.09 48.54 3.96 45.35 2.37 41.65C0.79 37.94 0 34.06 0 30C0 25.93 0.79 22.05 2.37 18.34C3.96 14.64 6.09 11.45 8.77 8.77C11.45 6.09 14.64 3.96 18.34 2.37C22.05 0.79 25.93 0 30 0C34.06 0 37.94 0.79 41.65 2.37C45.35 3.96 48.54 6.09 51.22 8.77C53.9 11.45 56.03 14.64 57.62 18.34C59.2 22.05 60 25.93 60 30Z" fill="#FFFFFF" fill-opacity="1.000000" fill-rule="nonzero"/>
</svg>
