<svg width="141.921875" height="108.000000" viewBox="0 0 141.922 108" fill="none" xmlns="http://www.w3.org/2000/svg" xmlns:xlink="http://www.w3.org/1999/xlink">
	<desc>
			Created with Pixso.
	</desc>
	<defs/>
	<path id="logo text" d="M13.45 69.01L13.45 73.73L6.51 73.73Q6.57 73.8 12.01 79.46Q12.56 80.27 12.7 81.15Q12.75 81.45 12.75 81.75Q12.75 82.57 12.48 83.28Q12.18 84.07 11.56 84.73Q10.86 85.47 10.01 85.77Q9.4 86 8.71 86L8.39e-5 86L8.39e-5 81.27L7.37 81.27L1.89 75.57Q1.78 75.42 1.68 75.27Q1.14 74.43 1.14 73.26Q1.14 72.38 1.44 71.63Q1.74 70.9 2.32 70.28Q2.98 69.57 3.8 69.26Q4.44 69.01 5.16 69.01L13.45 69.01ZM16.21 73.73L16.21 69.01L29.65 69.01L29.65 73.73L25.29 73.73L25.29 86L20.57 86L20.57 73.73L16.21 73.73ZM29.02 86L35.74 69.01L41.44 69.01L47.93 86L42.51 86L41.86 84.32L35.31 84.32L34.68 86L29.02 86ZM65.2 72.9Q65.67 74.02 65.67 75.33Q65.67 76.29 65.4 77.17Q65.14 78.03 64.63 78.81Q64.11 79.6 63.41 80.18Q62.75 80.73 61.93 81.1Q62.8 81.27 63.9 81.27L65.32 81.27L65.32 86L63.9 86Q59.27 86 56.8 83.68Q56.61 83.51 56.44 83.32Q56.27 83.15 56.12 82.96L56.12 86L51.4 86L51.4 69.01L59.41 69.01Q60.71 69.03 61.82 69.49Q62.93 69.96 63.84 70.89Q64.75 71.8 65.2 72.9ZM81.25 69.01L82.68 75.27L84.12 69.01L89.43 69.01L85.3 86L80.07 86L79.21 79.67L77.67 86L73.03 86L69.14 69.01L74.21 69.01L75.64 75.27L77.08 69.01L81.25 69.01ZM89.38 86L96.11 69.01L101.81 69.01L108.3 86L102.87 86L102.23 84.32L95.68 84.32L95.04 86L89.38 86ZM125.57 72.9Q126.04 74.02 126.04 75.33Q126.04 76.29 125.77 77.17Q125.51 78.03 124.99 78.81Q124.66 79.32 124.24 79.76Q123.42 80.65 122.3 81.27L135.82 81.27L130.35 75.57Q130.23 75.42 130.13 75.27Q129.6 74.43 129.6 73.26Q129.6 72.38 129.9 71.63Q130.19 70.9 130.77 70.28Q131.44 69.57 132.25 69.26Q132.89 69.01 133.62 69.01L141.9 69.01L141.9 73.73L134.96 73.73Q135.02 73.8 140.46 79.46Q141.01 80.27 141.15 81.15Q141.2 81.45 141.2 81.75Q141.2 82.57 140.93 83.28Q140.63 84.07 140.01 84.73Q139.32 85.47 138.47 85.77Q137.86 86 137.17 86L119.29 86L116.49 82.96L116.49 86L111.76 86L111.76 69.01L119.78 69.01Q121.08 69.03 122.19 69.49Q123.29 69.96 124.21 70.89Q125.11 71.8 125.57 72.9ZM56.12 74.42L56.12 76.74L58.99 76.74Q59.23 76.74 59.44 76.65Q59.64 76.57 59.81 76.4Q59.98 76.23 60.07 76.02Q60.15 75.82 60.15 75.58Q60.15 75.34 60.07 75.13Q59.98 74.93 59.81 74.76Q59.64 74.59 59.44 74.5Q59.23 74.42 58.99 74.42L56.12 74.42ZM116.49 74.42L116.49 76.74L119.36 76.74Q119.6 76.74 119.8 76.65Q120.01 76.57 120.18 76.4Q120.35 76.23 120.43 76.02Q120.52 75.82 120.52 75.58Q120.52 75.34 120.43 75.13Q120.35 74.93 120.18 74.76Q120.01 74.59 119.8 74.5Q119.6 74.42 119.36 74.42L116.49 74.42ZM38.59 75.65L36.99 79.89L40.2 79.89L38.59 75.65ZM98.96 75.65L97.35 79.89L100.56 79.89L98.96 75.65ZM17.53 104L14.38 104L14.38 92.67L17.53 92.67L17.53 104ZM22.01 92.67L26.21 98.56L26.21 92.67L29.36 92.67L29.36 104L26.21 104L22.03 98.1L22.03 104L18.88 104L18.88 92.67L22.01 92.67ZM30.71 104L30.71 92.67L38.91 92.67L38.91 95.82L33.86 95.82L33.86 96.76L38.12 96.76L38.12 99.91L33.86 99.91L33.86 104L30.71 104ZM43.25 93.1Q44.27 92.67 45.46 92.67L46.32 92.67Q47.51 92.67 48.52 93.1Q49.51 93.51 50.33 94.33Q51.15 95.16 51.57 96.15Q51.98 97.16 51.98 98.33Q51.98 99.52 51.56 100.54Q51.14 101.52 50.33 102.34Q49.51 103.16 48.52 103.57Q47.51 104 46.32 104L45.46 104Q44.27 104 43.25 103.57Q42.27 103.16 41.45 102.34Q40.63 101.52 40.22 100.54Q39.79 99.52 39.79 98.33Q39.79 97.16 40.21 96.15Q40.62 95.16 41.45 94.33Q42.27 93.51 43.25 93.1ZM62.54 95.26Q62.85 96.01 62.85 96.89Q62.85 97.53 62.67 98.11Q62.5 98.68 62.15 99.21Q61.8 99.73 61.34 100.12Q60.9 100.49 60.36 100.73Q60.93 100.85 61.67 100.85L62.61 100.85L62.61 104L61.67 104Q58.58 104 56.93 102.46Q56.81 102.34 56.69 102.21Q56.58 102.1 56.48 101.97L56.48 104L53.33 104L53.33 92.67L58.68 92.67Q59.54 92.68 60.28 92.99Q61.02 93.31 61.63 93.92Q62.23 94.53 62.54 95.26ZM67.74 92.67L70.39 97.79L72.65 92.67L76.58 92.67L76.58 104L73.43 104L73.43 99.03L70.39 103.95L67.35 99.03L67.35 104L64.2 104L64.2 92.67L67.74 92.67ZM77.93 104L82.42 92.67L86.21 92.67L90.54 104L86.92 104L86.49 102.88L82.13 102.88L81.71 104L77.93 104ZM89.24 95.82L89.24 92.67L98.2 92.67L98.2 95.82L95.29 95.82L95.29 104L92.14 104L92.14 95.82L89.24 95.82ZM102.7 104L99.55 104L99.55 92.67L102.7 92.67L102.7 104ZM107.51 93.1Q108.52 92.67 109.71 92.67L110.57 92.67Q111.76 92.67 112.77 93.1Q113.76 93.51 114.58 94.33Q115.4 95.16 115.82 96.15Q116.23 97.16 116.23 98.33Q116.23 99.52 115.81 100.54Q115.39 101.52 114.58 102.34Q113.76 103.16 112.77 103.57Q111.76 104 110.57 104L109.71 104Q108.52 104 107.51 103.57Q106.52 103.16 105.7 102.34Q104.89 101.52 104.47 100.54Q104.05 99.52 104.05 98.33Q104.05 97.16 104.46 96.15Q104.88 95.16 105.7 94.33Q106.52 93.51 107.51 93.1ZM120.72 92.67L124.91 98.56L124.91 92.67L128.06 92.67L128.06 104L124.91 104L120.73 98.1L120.73 104L117.58 104L117.58 92.67L120.72 92.67ZM44.46 100.65Q44.92 100.85 45.46 100.85L46.32 100.85Q46.85 100.85 47.31 100.65Q47.74 100.47 48.1 100.11Q48.47 99.75 48.65 99.31Q48.84 98.86 48.84 98.33Q48.84 97.78 48.64 97.32Q48.46 96.9 48.11 96.55Q47.78 96.21 47.37 96.03Q46.89 95.82 46.32 95.82L45.46 95.82Q44.89 95.82 44.41 96.03Q44 96.21 43.66 96.55Q43.31 96.9 43.13 97.32Q42.93 97.78 42.93 98.33Q42.93 98.86 43.12 99.31Q43.31 99.75 43.68 100.11Q44.03 100.47 44.46 100.65ZM108.72 100.65Q109.17 100.85 109.71 100.85L110.57 100.85Q111.11 100.85 111.56 100.65Q111.99 100.47 112.35 100.11Q112.72 99.75 112.9 99.31Q113.09 98.86 113.09 98.33Q113.09 97.78 112.89 97.32Q112.71 96.9 112.37 96.55Q112.03 96.21 111.62 96.03Q111.14 95.82 110.57 95.82L109.71 95.82Q109.14 95.82 108.66 96.03Q108.25 96.21 107.91 96.55Q107.57 96.9 107.39 97.32Q107.19 97.78 107.19 98.33Q107.19 98.86 107.38 99.31Q107.56 99.75 107.93 100.11Q108.29 100.47 108.72 100.65ZM56.48 96.28L56.48 97.82L58.39 97.82Q58.55 97.82 58.69 97.77Q58.83 97.71 58.94 97.6Q59.05 97.48 59.11 97.35Q59.17 97.21 59.17 97.05Q59.17 96.89 59.11 96.75Q59.05 96.62 58.94 96.5Q58.83 96.39 58.69 96.33Q58.55 96.28 58.39 96.28L56.48 96.28ZM84.31 97.1L83.24 99.92L85.38 99.92L84.31 97.1Z" fill="#FFFFFF" fill-opacity="1.000000" fill-rule="evenodd"/>
	<path id="Vector" d="M70.18 54.84L70.18 57.05C65.54 56.91 61.24 55.69 57.29 53.38C53.34 51.07 50.18 48 47.81 44.16L49.76 43.02C50.4 44.11 51.22 45.22 52.2 46.33L54.38 44.43C57.68 48.18 61.79 50.54 66.7 51.52L66.13 54.4C67.58 54.67 68.93 54.82 70.18 54.84ZM50.16 37.09L47.38 38.03C47.87 39.37 48.42 40.62 49.02 41.78L47.11 42.89C44.92 38.87 43.83 34.57 43.83 30C43.83 25.42 44.92 21.12 47.11 17.1L49.02 18.21C48.35 19.46 47.8 20.71 47.38 21.96L50.12 22.9C49.34 25.13 48.95 27.5 48.95 30C48.95 32.43 49.35 34.79 50.16 37.09ZM92.08 43.02L94.02 44.16C91.65 48 88.5 51.07 84.54 53.38C80.59 55.69 76.3 56.91 71.65 57.05L71.65 54.84C72.9 54.82 74.25 54.67 75.7 54.4L75.14 51.52C80.05 50.54 84.15 48.18 87.46 44.43L89.63 46.33C90.62 45.22 91.43 44.11 92.08 43.02ZM87.02 24.47L79.22 27.15C79.53 28.09 79.69 29.04 79.69 30C79.69 30.95 79.53 31.9 79.22 32.84L86.99 35.52C86.3 37.57 85.2 39.46 83.71 41.18L77.51 35.75C76.24 37.25 74.6 38.2 72.59 38.6L74.2 46.67C73.04 46.89 71.94 47 70.92 47C69.89 47 68.8 46.89 67.64 46.67L69.24 38.6C67.23 38.2 65.59 37.25 64.32 35.75L58.13 41.18C56.63 39.46 55.54 37.57 54.85 35.52L62.61 32.84C62.3 31.9 62.14 30.95 62.14 30C62.14 29.04 62.3 28.09 62.61 27.15L54.81 24.47C55.55 22.39 56.65 20.51 58.13 18.81L64.32 24.24C65.64 22.72 67.28 21.76 69.24 21.36L67.64 13.32C68.62 13.1 69.71 12.99 70.92 12.99C72.12 12.99 73.22 13.1 74.2 13.32L72.59 21.36C74.56 21.76 76.2 22.72 77.51 24.24L83.71 18.81C85.18 20.51 86.29 22.39 87.02 24.47ZM70.18 2.94L70.18 5.15C68.73 5.2 67.38 5.34 66.13 5.59L66.7 8.47C61.79 9.4 57.68 11.76 54.38 15.53L52.2 13.66C51.35 14.59 50.54 15.69 49.76 16.94L47.85 15.83C50.21 11.99 53.36 8.92 57.29 6.61C61.22 4.3 65.51 3.08 70.18 2.94ZM98 30C98 34.57 96.91 38.87 94.72 42.89L92.81 41.78C93.42 40.62 93.96 39.37 94.45 38.03L91.68 37.09C92.48 34.79 92.88 32.43 92.88 30C92.88 27.5 92.49 25.13 91.71 22.9L94.45 21.96C94.03 20.71 93.48 19.46 92.81 18.21L94.72 17.1C96.91 21.12 98 25.42 98 30ZM93.99 15.83L92.08 16.94C91.3 15.69 90.48 14.59 89.63 13.66L87.46 15.53C84.15 11.76 80.05 9.4 75.14 8.47L75.7 5.59C74.45 5.34 73.1 5.2 71.65 5.15L71.65 2.94C76.32 3.08 80.62 4.3 84.54 6.61C88.47 8.92 91.62 11.99 93.99 15.83ZM99.44 30C99.44 26.13 98.69 22.44 97.18 18.91C95.68 15.39 93.65 12.35 91.11 9.81C88.56 7.26 85.53 5.23 82 3.73C78.47 2.22 74.78 1.47 70.92 1.47C67.06 1.47 63.36 2.22 59.83 3.73C56.31 5.23 53.27 7.26 50.73 9.81C48.18 12.35 46.16 15.39 44.65 18.91C43.14 22.44 42.39 26.13 42.39 30C42.39 33.86 43.14 37.55 44.65 41.08C46.16 44.6 48.18 47.64 50.73 50.18C53.27 52.73 56.31 54.76 59.83 56.26C63.36 57.77 67.06 58.52 70.92 58.52C74.78 58.52 78.47 57.77 82 56.26C85.53 54.76 88.56 52.73 91.11 50.18C93.65 47.64 95.68 44.6 97.18 41.08C98.69 37.55 99.44 33.86 99.44 30ZM100.92 30C100.92 34.06 100.12 37.94 98.54 41.65C96.95 45.35 94.82 48.54 92.14 51.22C89.47 53.9 86.27 56.03 82.57 57.62C78.86 59.2 74.98 60 70.92 60C66.85 60 62.97 59.2 59.27 57.62C55.56 56.03 52.37 53.9 49.69 51.22C47.01 48.54 44.88 45.35 43.29 41.65C41.71 37.94 40.92 34.06 40.92 30C40.92 25.93 41.71 22.05 43.29 18.34C44.88 14.64 47.01 11.45 49.69 8.77C52.37 6.09 55.56 3.96 59.27 2.37C62.97 0.79 66.85 0 70.92 0C74.98 0 78.86 0.79 82.57 2.37C86.27 3.96 89.47 6.09 92.14 8.77C94.82 11.45 96.95 14.64 98.54 18.34C100.12 22.05 100.92 25.93 100.92 30Z" fill="#FFFFFF" fill-opacity="1.000000" fill-rule="nonzero"/>
</svg>
